<mxfile host="app.diagrams.net" modified="2022-01-08T11:07:45.089Z" agent="5.0 (X11; Linux x86_64) AppleWebKit/537.36 (KHTML, like Gecko) Chrome/96.0.4664.45 Safari/537.36" etag="KGX9Vg21s2J-9cGjSKwt" version="16.2.4" type="github" pages="2">
  <diagram id="LiTA-wNop70j2UXsWzjn" name="Projects Wireframe">
    <mxGraphModel dx="2272" dy="1868" grid="1" gridSize="10" guides="1" tooltips="1" connect="1" arrows="1" fold="1" page="1" pageScale="1" pageWidth="850" pageHeight="1100" math="0" shadow="0">
      <root>
        <mxCell id="4n0d5DJK6220EFRmUgS7-0" />
        <mxCell id="4n0d5DJK6220EFRmUgS7-1" parent="4n0d5DJK6220EFRmUgS7-0" />
        <mxCell id="02JnvlSmlGlPBERRK4Ya-316" value="" style="shape=ext;double=1;rounded=0;whiteSpace=wrap;html=1;shadow=1;glass=0;dashed=1;dashPattern=1 1;labelBackgroundColor=none;sketch=1;fontSize=15;strokeColor=#6c8ebf;fillColor=#dae8fc;" parent="4n0d5DJK6220EFRmUgS7-1" vertex="1">
          <mxGeometry x="1530" y="105" width="530" height="500" as="geometry" />
        </mxCell>
        <mxCell id="02JnvlSmlGlPBERRK4Ya-82" value="" style="shape=ext;double=1;rounded=0;whiteSpace=wrap;html=1;shadow=1;glass=0;dashed=1;dashPattern=1 1;labelBackgroundColor=none;sketch=1;fontSize=15;strokeColor=#6c8ebf;fillColor=#dae8fc;" parent="4n0d5DJK6220EFRmUgS7-1" vertex="1">
          <mxGeometry x="880" y="410" width="510" height="355" as="geometry" />
        </mxCell>
        <mxCell id="02JnvlSmlGlPBERRK4Ya-87" value="" style="shape=table;startSize=0;container=1;collapsible=0;childLayout=tableLayout;shadow=1;glass=0;labelBackgroundColor=none;labelBorderColor=none;sketch=1;fillStyle=solid;fontSize=15;fontColor=#FFFFFF;strokeColor=#1A1A1A;fillColor=#36BCFF;html=0;" parent="4n0d5DJK6220EFRmUgS7-1" vertex="1">
          <mxGeometry x="905" y="500" width="460" height="40" as="geometry" />
        </mxCell>
        <mxCell id="02JnvlSmlGlPBERRK4Ya-88" value="" style="shape=tableRow;horizontal=0;startSize=0;swimlaneHead=0;swimlaneBody=0;top=0;left=0;bottom=0;right=0;collapsible=0;dropTarget=0;fillColor=none;points=[[0,0.5],[1,0.5]];portConstraint=eastwest;shadow=1;glass=0;labelBackgroundColor=none;labelBorderColor=none;sketch=1;fillStyle=solid;fontSize=15;fontColor=#FFFFFF;strokeColor=#1A1A1A;html=0;" parent="02JnvlSmlGlPBERRK4Ya-87" vertex="1">
          <mxGeometry width="460" height="40" as="geometry" />
        </mxCell>
        <mxCell id="02JnvlSmlGlPBERRK4Ya-89" value="" style="shape=partialRectangle;html=1;whiteSpace=wrap;connectable=0;overflow=hidden;fillColor=none;top=0;left=0;bottom=0;right=0;pointerEvents=1;shadow=1;glass=0;labelBackgroundColor=none;labelBorderColor=none;sketch=1;fillStyle=solid;fontSize=15;fontColor=#FFFFFF;strokeColor=#1A1A1A;" parent="02JnvlSmlGlPBERRK4Ya-88" vertex="1">
          <mxGeometry width="38" height="40" as="geometry">
            <mxRectangle width="38" height="40" as="alternateBounds" />
          </mxGeometry>
        </mxCell>
        <mxCell id="02JnvlSmlGlPBERRK4Ya-90" value="" style="shape=partialRectangle;html=1;whiteSpace=wrap;connectable=0;overflow=hidden;fillColor=none;top=0;left=0;bottom=0;right=0;pointerEvents=1;shadow=1;glass=0;labelBackgroundColor=none;labelBorderColor=none;sketch=1;fillStyle=solid;fontSize=15;fontColor=#FFFFFF;strokeColor=#1A1A1A;" parent="02JnvlSmlGlPBERRK4Ya-88" vertex="1">
          <mxGeometry x="38" width="39" height="40" as="geometry">
            <mxRectangle width="39" height="40" as="alternateBounds" />
          </mxGeometry>
        </mxCell>
        <mxCell id="02JnvlSmlGlPBERRK4Ya-91" value="" style="shape=partialRectangle;html=1;whiteSpace=wrap;connectable=0;overflow=hidden;fillColor=none;top=0;left=0;bottom=0;right=0;pointerEvents=1;shadow=1;glass=0;labelBackgroundColor=none;labelBorderColor=none;sketch=1;fillStyle=solid;fontSize=15;fontColor=#FFFFFF;strokeColor=#1A1A1A;" parent="02JnvlSmlGlPBERRK4Ya-88" vertex="1">
          <mxGeometry x="77" width="38" height="40" as="geometry">
            <mxRectangle width="38" height="40" as="alternateBounds" />
          </mxGeometry>
        </mxCell>
        <mxCell id="02JnvlSmlGlPBERRK4Ya-92" value="" style="shape=partialRectangle;html=1;whiteSpace=wrap;connectable=0;overflow=hidden;fillColor=none;top=0;left=0;bottom=0;right=0;pointerEvents=1;shadow=1;glass=0;labelBackgroundColor=none;labelBorderColor=none;sketch=1;fillStyle=solid;fontSize=15;fontColor=#FFFFFF;strokeColor=#1A1A1A;" parent="02JnvlSmlGlPBERRK4Ya-88" vertex="1">
          <mxGeometry x="115" width="38" height="40" as="geometry">
            <mxRectangle width="38" height="40" as="alternateBounds" />
          </mxGeometry>
        </mxCell>
        <mxCell id="02JnvlSmlGlPBERRK4Ya-93" value="" style="shape=partialRectangle;html=1;whiteSpace=wrap;connectable=0;overflow=hidden;fillColor=none;top=0;left=0;bottom=0;right=0;pointerEvents=1;shadow=1;glass=0;labelBackgroundColor=none;labelBorderColor=none;sketch=1;fillStyle=solid;fontSize=15;fontColor=#FFFFFF;strokeColor=#1A1A1A;" parent="02JnvlSmlGlPBERRK4Ya-88" vertex="1">
          <mxGeometry x="153" width="57" height="40" as="geometry">
            <mxRectangle width="57" height="40" as="alternateBounds" />
          </mxGeometry>
        </mxCell>
        <mxCell id="02JnvlSmlGlPBERRK4Ya-94" value="" style="shape=partialRectangle;html=1;whiteSpace=wrap;connectable=0;overflow=hidden;fillColor=none;top=0;left=0;bottom=0;right=0;pointerEvents=1;shadow=1;glass=0;labelBackgroundColor=none;labelBorderColor=none;sketch=1;fillStyle=solid;fontSize=15;fontColor=#FFFFFF;strokeColor=#1A1A1A;" parent="02JnvlSmlGlPBERRK4Ya-88" vertex="1">
          <mxGeometry x="210" width="20" height="40" as="geometry">
            <mxRectangle width="20" height="40" as="alternateBounds" />
          </mxGeometry>
        </mxCell>
        <mxCell id="02JnvlSmlGlPBERRK4Ya-95" value="" style="shape=partialRectangle;html=1;whiteSpace=wrap;connectable=0;overflow=hidden;fillColor=none;top=0;left=0;bottom=0;right=0;pointerEvents=1;shadow=1;glass=0;labelBackgroundColor=none;labelBorderColor=none;sketch=1;fillStyle=solid;fontSize=15;fontColor=#FFFFFF;strokeColor=#1A1A1A;" parent="02JnvlSmlGlPBERRK4Ya-88" vertex="1">
          <mxGeometry x="230" width="38" height="40" as="geometry">
            <mxRectangle width="38" height="40" as="alternateBounds" />
          </mxGeometry>
        </mxCell>
        <mxCell id="02JnvlSmlGlPBERRK4Ya-96" value="" style="shape=partialRectangle;html=1;whiteSpace=wrap;connectable=0;overflow=hidden;fillColor=none;top=0;left=0;bottom=0;right=0;pointerEvents=1;shadow=1;glass=0;labelBackgroundColor=none;labelBorderColor=none;sketch=1;fillStyle=solid;fontSize=15;fontColor=#FFFFFF;strokeColor=#1A1A1A;" parent="02JnvlSmlGlPBERRK4Ya-88" vertex="1">
          <mxGeometry x="268" width="39" height="40" as="geometry">
            <mxRectangle width="39" height="40" as="alternateBounds" />
          </mxGeometry>
        </mxCell>
        <mxCell id="02JnvlSmlGlPBERRK4Ya-97" value="" style="shape=partialRectangle;html=1;whiteSpace=wrap;connectable=0;overflow=hidden;fillColor=none;top=0;left=0;bottom=0;right=0;pointerEvents=1;shadow=1;glass=0;labelBackgroundColor=none;labelBorderColor=none;sketch=1;fillStyle=solid;fontSize=15;fontColor=#FFFFFF;strokeColor=#1A1A1A;" parent="02JnvlSmlGlPBERRK4Ya-88" vertex="1">
          <mxGeometry x="307" width="38" height="40" as="geometry">
            <mxRectangle width="38" height="40" as="alternateBounds" />
          </mxGeometry>
        </mxCell>
        <mxCell id="02JnvlSmlGlPBERRK4Ya-98" value="" style="shape=partialRectangle;html=1;whiteSpace=wrap;connectable=0;overflow=hidden;fillColor=none;top=0;left=0;bottom=0;right=0;pointerEvents=1;shadow=1;glass=0;labelBackgroundColor=none;labelBorderColor=none;sketch=1;fillStyle=solid;fontSize=15;fontColor=#FFFFFF;strokeColor=#1A1A1A;" parent="02JnvlSmlGlPBERRK4Ya-88" vertex="1">
          <mxGeometry x="345" width="38" height="40" as="geometry">
            <mxRectangle width="38" height="40" as="alternateBounds" />
          </mxGeometry>
        </mxCell>
        <mxCell id="02JnvlSmlGlPBERRK4Ya-99" value="&lt;span style=&quot;background-color: rgb(5 , 155 , 255)&quot;&gt;Edit&lt;/span&gt;" style="shape=partialRectangle;html=1;whiteSpace=wrap;connectable=0;overflow=hidden;fillColor=none;top=0;left=0;bottom=0;right=0;pointerEvents=1;shadow=1;glass=0;labelBackgroundColor=none;labelBorderColor=none;sketch=1;fillStyle=solid;fontSize=15;fontColor=#FFFFFF;strokeColor=#1A1A1A;" parent="02JnvlSmlGlPBERRK4Ya-88" vertex="1">
          <mxGeometry x="383" width="39" height="40" as="geometry">
            <mxRectangle width="39" height="40" as="alternateBounds" />
          </mxGeometry>
        </mxCell>
        <mxCell id="02JnvlSmlGlPBERRK4Ya-100" value="&lt;font style=&quot;font-size: 9px ; background-color: rgb(255 , 8 , 8)&quot;&gt;Delete&lt;/font&gt;" style="shape=partialRectangle;html=1;whiteSpace=wrap;connectable=0;overflow=hidden;fillColor=none;top=0;left=0;bottom=0;right=0;pointerEvents=1;shadow=1;glass=0;labelBackgroundColor=none;labelBorderColor=none;sketch=1;fillStyle=solid;fontSize=15;fontColor=#FFFFFF;strokeColor=#1A1A1A;" parent="02JnvlSmlGlPBERRK4Ya-88" vertex="1">
          <mxGeometry x="422" width="38" height="40" as="geometry">
            <mxRectangle width="38" height="40" as="alternateBounds" />
          </mxGeometry>
        </mxCell>
        <mxCell id="02JnvlSmlGlPBERRK4Ya-56" value="" style="shape=table;startSize=0;container=1;collapsible=0;childLayout=tableLayout;shadow=1;glass=0;labelBackgroundColor=none;labelBorderColor=none;sketch=1;fillStyle=solid;fontSize=15;fontColor=#FFFFFF;strokeColor=#1A1A1A;fillColor=#36BCFF;html=0;" parent="4n0d5DJK6220EFRmUgS7-1" vertex="1">
          <mxGeometry x="441" y="-370" width="319" height="230" as="geometry" />
        </mxCell>
        <mxCell id="02JnvlSmlGlPBERRK4Ya-57" value="" style="shape=tableRow;horizontal=0;startSize=0;swimlaneHead=0;swimlaneBody=0;top=0;left=0;bottom=0;right=0;collapsible=0;dropTarget=0;fillColor=none;points=[[0,0.5],[1,0.5]];portConstraint=eastwest;shadow=1;glass=0;labelBackgroundColor=none;labelBorderColor=none;sketch=1;fillStyle=solid;fontSize=15;fontColor=#FFFFFF;strokeColor=#1A1A1A;html=0;" parent="02JnvlSmlGlPBERRK4Ya-56" vertex="1">
          <mxGeometry width="319" height="58" as="geometry" />
        </mxCell>
        <mxCell id="02JnvlSmlGlPBERRK4Ya-58" value="" style="shape=partialRectangle;html=1;whiteSpace=wrap;connectable=0;overflow=hidden;fillColor=none;top=0;left=0;bottom=0;right=0;pointerEvents=1;shadow=1;glass=0;labelBackgroundColor=none;labelBorderColor=none;sketch=1;fillStyle=solid;fontSize=15;fontColor=#FFFFFF;strokeColor=#1A1A1A;" parent="02JnvlSmlGlPBERRK4Ya-57" vertex="1">
          <mxGeometry width="106" height="58" as="geometry">
            <mxRectangle width="106" height="58" as="alternateBounds" />
          </mxGeometry>
        </mxCell>
        <mxCell id="02JnvlSmlGlPBERRK4Ya-59" value="" style="shape=partialRectangle;html=1;whiteSpace=wrap;connectable=0;overflow=hidden;fillColor=none;top=0;left=0;bottom=0;right=0;pointerEvents=1;shadow=1;glass=0;labelBackgroundColor=none;labelBorderColor=none;sketch=1;fillStyle=solid;fontSize=15;fontColor=#FFFFFF;strokeColor=#1A1A1A;" parent="02JnvlSmlGlPBERRK4Ya-57" vertex="1">
          <mxGeometry x="106" width="107" height="58" as="geometry">
            <mxRectangle width="107" height="58" as="alternateBounds" />
          </mxGeometry>
        </mxCell>
        <mxCell id="02JnvlSmlGlPBERRK4Ya-60" value="" style="shape=partialRectangle;html=1;whiteSpace=wrap;connectable=0;overflow=hidden;fillColor=none;top=0;left=0;bottom=0;right=0;pointerEvents=1;shadow=1;glass=0;labelBackgroundColor=none;labelBorderColor=none;sketch=1;fillStyle=solid;fontSize=15;fontColor=#FFFFFF;strokeColor=#1A1A1A;" parent="02JnvlSmlGlPBERRK4Ya-57" vertex="1">
          <mxGeometry x="213" width="106" height="58" as="geometry">
            <mxRectangle width="106" height="58" as="alternateBounds" />
          </mxGeometry>
        </mxCell>
        <mxCell id="02JnvlSmlGlPBERRK4Ya-61" value="" style="shape=tableRow;horizontal=0;startSize=0;swimlaneHead=0;swimlaneBody=0;top=0;left=0;bottom=0;right=0;collapsible=0;dropTarget=0;fillColor=none;points=[[0,0.5],[1,0.5]];portConstraint=eastwest;shadow=1;glass=0;labelBackgroundColor=none;labelBorderColor=none;sketch=1;fillStyle=solid;fontSize=15;fontColor=#FFFFFF;strokeColor=#1A1A1A;html=0;" parent="02JnvlSmlGlPBERRK4Ya-56" vertex="1">
          <mxGeometry y="58" width="319" height="57" as="geometry" />
        </mxCell>
        <mxCell id="02JnvlSmlGlPBERRK4Ya-62" value="" style="shape=partialRectangle;html=1;whiteSpace=wrap;connectable=0;overflow=hidden;fillColor=none;top=0;left=0;bottom=0;right=0;pointerEvents=1;shadow=1;glass=0;labelBackgroundColor=none;labelBorderColor=none;sketch=1;fillStyle=solid;fontSize=15;fontColor=#FFFFFF;strokeColor=#1A1A1A;" parent="02JnvlSmlGlPBERRK4Ya-61" vertex="1">
          <mxGeometry width="106" height="57" as="geometry">
            <mxRectangle width="106" height="57" as="alternateBounds" />
          </mxGeometry>
        </mxCell>
        <mxCell id="02JnvlSmlGlPBERRK4Ya-63" value="" style="shape=partialRectangle;html=1;whiteSpace=wrap;connectable=0;overflow=hidden;fillColor=none;top=0;left=0;bottom=0;right=0;pointerEvents=1;shadow=1;glass=0;labelBackgroundColor=none;labelBorderColor=none;sketch=1;fillStyle=solid;fontSize=15;fontColor=#FFFFFF;strokeColor=#1A1A1A;" parent="02JnvlSmlGlPBERRK4Ya-61" vertex="1">
          <mxGeometry x="106" width="107" height="57" as="geometry">
            <mxRectangle width="107" height="57" as="alternateBounds" />
          </mxGeometry>
        </mxCell>
        <mxCell id="02JnvlSmlGlPBERRK4Ya-64" value="" style="shape=partialRectangle;html=1;whiteSpace=wrap;connectable=0;overflow=hidden;fillColor=none;top=0;left=0;bottom=0;right=0;pointerEvents=1;shadow=1;glass=0;labelBackgroundColor=none;labelBorderColor=none;sketch=1;fillStyle=solid;fontSize=15;fontColor=#FFFFFF;strokeColor=#1A1A1A;" parent="02JnvlSmlGlPBERRK4Ya-61" vertex="1">
          <mxGeometry x="213" width="106" height="57" as="geometry">
            <mxRectangle width="106" height="57" as="alternateBounds" />
          </mxGeometry>
        </mxCell>
        <mxCell id="02JnvlSmlGlPBERRK4Ya-65" value="" style="shape=tableRow;horizontal=0;startSize=0;swimlaneHead=0;swimlaneBody=0;top=0;left=0;bottom=0;right=0;collapsible=0;dropTarget=0;fillColor=none;points=[[0,0.5],[1,0.5]];portConstraint=eastwest;shadow=1;glass=0;labelBackgroundColor=none;labelBorderColor=none;sketch=1;fillStyle=solid;fontSize=15;fontColor=#FFFFFF;strokeColor=#1A1A1A;html=0;" parent="02JnvlSmlGlPBERRK4Ya-56" vertex="1">
          <mxGeometry y="115" width="319" height="58" as="geometry" />
        </mxCell>
        <mxCell id="02JnvlSmlGlPBERRK4Ya-66" value="" style="shape=partialRectangle;html=1;whiteSpace=wrap;connectable=0;overflow=hidden;fillColor=none;top=0;left=0;bottom=0;right=0;pointerEvents=1;shadow=1;glass=0;labelBackgroundColor=none;labelBorderColor=none;sketch=1;fillStyle=solid;fontSize=15;fontColor=#FFFFFF;strokeColor=#1A1A1A;" parent="02JnvlSmlGlPBERRK4Ya-65" vertex="1">
          <mxGeometry width="106" height="58" as="geometry">
            <mxRectangle width="106" height="58" as="alternateBounds" />
          </mxGeometry>
        </mxCell>
        <mxCell id="02JnvlSmlGlPBERRK4Ya-67" value="" style="shape=partialRectangle;html=1;whiteSpace=wrap;connectable=0;overflow=hidden;fillColor=none;top=0;left=0;bottom=0;right=0;pointerEvents=1;shadow=1;glass=0;labelBackgroundColor=none;labelBorderColor=none;sketch=1;fillStyle=solid;fontSize=15;fontColor=#FFFFFF;strokeColor=#1A1A1A;" parent="02JnvlSmlGlPBERRK4Ya-65" vertex="1">
          <mxGeometry x="106" width="107" height="58" as="geometry">
            <mxRectangle width="107" height="58" as="alternateBounds" />
          </mxGeometry>
        </mxCell>
        <mxCell id="02JnvlSmlGlPBERRK4Ya-68" value="" style="shape=partialRectangle;html=1;whiteSpace=wrap;connectable=0;overflow=hidden;fillColor=none;top=0;left=0;bottom=0;right=0;pointerEvents=1;shadow=1;glass=0;labelBackgroundColor=none;labelBorderColor=none;sketch=1;fillStyle=solid;fontSize=15;fontColor=#FFFFFF;strokeColor=#1A1A1A;" parent="02JnvlSmlGlPBERRK4Ya-65" vertex="1">
          <mxGeometry x="213" width="106" height="58" as="geometry">
            <mxRectangle width="106" height="58" as="alternateBounds" />
          </mxGeometry>
        </mxCell>
        <mxCell id="02JnvlSmlGlPBERRK4Ya-69" value="" style="shape=tableRow;horizontal=0;startSize=0;swimlaneHead=0;swimlaneBody=0;top=0;left=0;bottom=0;right=0;collapsible=0;dropTarget=0;fillColor=none;points=[[0,0.5],[1,0.5]];portConstraint=eastwest;shadow=1;glass=0;labelBackgroundColor=none;labelBorderColor=none;sketch=1;fillStyle=solid;fontSize=15;fontColor=#FFFFFF;strokeColor=#1A1A1A;html=0;" parent="02JnvlSmlGlPBERRK4Ya-56" vertex="1">
          <mxGeometry y="173" width="319" height="57" as="geometry" />
        </mxCell>
        <mxCell id="02JnvlSmlGlPBERRK4Ya-70" value="" style="shape=partialRectangle;html=1;whiteSpace=wrap;connectable=0;overflow=hidden;fillColor=none;top=0;left=0;bottom=0;right=0;pointerEvents=1;shadow=1;glass=0;labelBackgroundColor=none;labelBorderColor=none;sketch=1;fillStyle=solid;fontSize=15;fontColor=#FFFFFF;strokeColor=#1A1A1A;" parent="02JnvlSmlGlPBERRK4Ya-69" vertex="1">
          <mxGeometry width="106" height="57" as="geometry">
            <mxRectangle width="106" height="57" as="alternateBounds" />
          </mxGeometry>
        </mxCell>
        <mxCell id="02JnvlSmlGlPBERRK4Ya-71" value="" style="shape=partialRectangle;html=1;whiteSpace=wrap;connectable=0;overflow=hidden;fillColor=none;top=0;left=0;bottom=0;right=0;pointerEvents=1;shadow=1;glass=0;labelBackgroundColor=none;labelBorderColor=none;sketch=1;fillStyle=solid;fontSize=15;fontColor=#FFFFFF;strokeColor=#1A1A1A;" parent="02JnvlSmlGlPBERRK4Ya-69" vertex="1">
          <mxGeometry x="106" width="107" height="57" as="geometry">
            <mxRectangle width="107" height="57" as="alternateBounds" />
          </mxGeometry>
        </mxCell>
        <mxCell id="02JnvlSmlGlPBERRK4Ya-72" value="" style="shape=partialRectangle;html=1;whiteSpace=wrap;connectable=0;overflow=hidden;fillColor=none;top=0;left=0;bottom=0;right=0;pointerEvents=1;shadow=1;glass=0;labelBackgroundColor=none;labelBorderColor=none;sketch=1;fillStyle=solid;fontSize=15;fontColor=#FFFFFF;strokeColor=#1A1A1A;" parent="02JnvlSmlGlPBERRK4Ya-69" vertex="1">
          <mxGeometry x="213" width="106" height="57" as="geometry">
            <mxRectangle width="106" height="57" as="alternateBounds" />
          </mxGeometry>
        </mxCell>
        <mxCell id="02JnvlSmlGlPBERRK4Ya-53" style="edgeStyle=none;rounded=0;orthogonalLoop=1;jettySize=auto;html=1;fontSize=15;fontColor=#FFFFFF;" parent="4n0d5DJK6220EFRmUgS7-1" source="02JnvlSmlGlPBERRK4Ya-38" target="WqpIsoiFvAImHQMnmrq4-19" edge="1">
          <mxGeometry relative="1" as="geometry" />
        </mxCell>
        <mxCell id="02JnvlSmlGlPBERRK4Ya-38" value="" style="shape=ext;double=1;rounded=0;whiteSpace=wrap;html=1;shadow=1;glass=0;dashed=1;dashPattern=1 1;labelBackgroundColor=none;sketch=1;fontSize=15;strokeColor=#6c8ebf;fillColor=#dae8fc;" parent="4n0d5DJK6220EFRmUgS7-1" vertex="1">
          <mxGeometry x="390" y="-440" width="425" height="360" as="geometry" />
        </mxCell>
        <mxCell id="O2P4XOxHpDhRckFLwLmB-0" value="" style="whiteSpace=wrap;html=1;shadow=1;glass=0;dashed=1;dashPattern=1 1;sketch=1;fontColor=#333333;strokeColor=#1A1A1A;fillColor=none;" parent="4n0d5DJK6220EFRmUgS7-1" vertex="1">
          <mxGeometry x="610" y="80" width="230" height="190" as="geometry" />
        </mxCell>
        <mxCell id="O2P4XOxHpDhRckFLwLmB-1" value="&lt;font style=&quot;font-size: 50px&quot;&gt;Laravel TODO&lt;/font&gt;" style="text;html=1;align=center;verticalAlign=middle;resizable=0;points=[];autosize=1;strokeColor=none;fillColor=none;fontColor=#D9004F;horizontal=1;fontStyle=5" parent="4n0d5DJK6220EFRmUgS7-1" vertex="1">
          <mxGeometry x="250" y="25" width="340" height="30" as="geometry" />
        </mxCell>
        <mxCell id="O2P4XOxHpDhRckFLwLmB-2" value="Database" style="rounded=0;shadow=1;glass=0;dashed=1;dashPattern=1 1;sketch=1;fontSize=13;fontColor=default;strokeColor=#1A1A1A;fillColor=none;align=center;labelPosition=center;verticalLabelPosition=middle;verticalAlign=middle;labelBackgroundColor=none;whiteSpace=wrap;" parent="4n0d5DJK6220EFRmUgS7-1" vertex="1">
          <mxGeometry x="610" y="80" width="230" height="30" as="geometry" />
        </mxCell>
        <mxCell id="O2P4XOxHpDhRckFLwLmB-4" value="&lt;ol&gt;&lt;li&gt;Create users table&lt;/li&gt;&lt;li&gt;Create claims table&lt;/li&gt;&lt;li&gt;Create items_numbers table&lt;/li&gt;&lt;li&gt;Create group_numbers table&lt;/li&gt;&lt;li&gt;Create product_serial_numbers table&lt;/li&gt;&lt;li&gt;Create product_types table&lt;/li&gt;&lt;li&gt;Create decisions table&lt;/li&gt;&lt;/ol&gt;" style="text;strokeColor=none;fillColor=none;html=1;whiteSpace=wrap;verticalAlign=top;overflow=hidden;shadow=1;glass=0;dashed=1;dashPattern=1 1;labelBackgroundColor=none;sketch=1;fontSize=13;fontColor=#454545;align=left;fontStyle=0" parent="4n0d5DJK6220EFRmUgS7-1" vertex="1">
          <mxGeometry x="610" y="110" width="230" height="160" as="geometry" />
        </mxCell>
        <mxCell id="WqpIsoiFvAImHQMnmrq4-0" value="" style="whiteSpace=wrap;html=1;shadow=1;glass=0;dashed=1;dashPattern=1 1;sketch=1;fontColor=#333333;strokeColor=#1A1A1A;fillColor=none;" parent="4n0d5DJK6220EFRmUgS7-1" vertex="1">
          <mxGeometry x="330" y="80" width="230" height="230" as="geometry" />
        </mxCell>
        <mxCell id="WqpIsoiFvAImHQMnmrq4-1" value="Controllers" style="rounded=0;shadow=1;glass=0;dashed=1;dashPattern=1 1;sketch=1;fontSize=13;fontColor=default;strokeColor=#1A1A1A;fillColor=none;align=center;labelPosition=center;verticalLabelPosition=middle;verticalAlign=middle;labelBackgroundColor=none;whiteSpace=wrap;" parent="4n0d5DJK6220EFRmUgS7-1" vertex="1">
          <mxGeometry x="330" y="80" width="230" height="30" as="geometry" />
        </mxCell>
        <mxCell id="WqpIsoiFvAImHQMnmrq4-2" value="&lt;ol&gt;&lt;li&gt;Create UserController Controller&lt;/li&gt;&lt;li&gt;Create AuthController Controller&lt;/li&gt;&lt;li&gt;Create ClaimController Controller&lt;/li&gt;&lt;li&gt;Create ItemController Controller&lt;/li&gt;&lt;li&gt;Create GroupController Controller&lt;/li&gt;&lt;li&gt;Create ProductSerial Controller&lt;/li&gt;&lt;li&gt;Create DecisionController Controller&lt;/li&gt;&lt;/ol&gt;" style="text;strokeColor=none;fillColor=none;html=1;whiteSpace=wrap;verticalAlign=top;overflow=hidden;shadow=1;glass=0;dashed=1;dashPattern=1 1;labelBackgroundColor=none;sketch=1;fontSize=13;fontColor=#454545;align=left;fontStyle=0" parent="4n0d5DJK6220EFRmUgS7-1" vertex="1">
          <mxGeometry x="320" y="110" width="230" height="200" as="geometry" />
        </mxCell>
        <mxCell id="WqpIsoiFvAImHQMnmrq4-4" value="" style="whiteSpace=wrap;html=1;shadow=1;glass=0;dashed=1;dashPattern=1 1;sketch=1;fontColor=#333333;strokeColor=#1A1A1A;fillColor=none;" parent="4n0d5DJK6220EFRmUgS7-1" vertex="1">
          <mxGeometry x="50" y="110" width="230" height="230" as="geometry" />
        </mxCell>
        <mxCell id="WqpIsoiFvAImHQMnmrq4-5" value="User Pages" style="rounded=0;shadow=1;glass=0;dashed=1;dashPattern=1 1;sketch=1;fontSize=13;fontColor=default;strokeColor=#1A1A1A;fillColor=none;align=center;labelPosition=center;verticalLabelPosition=middle;verticalAlign=middle;labelBackgroundColor=none;whiteSpace=wrap;" parent="4n0d5DJK6220EFRmUgS7-1" vertex="1">
          <mxGeometry x="50" y="80" width="230" height="30" as="geometry" />
        </mxCell>
        <mxCell id="WqpIsoiFvAImHQMnmrq4-13" value="" style="shape=actor;whiteSpace=wrap;html=1;shadow=1;glass=0;dashed=1;dashPattern=1 1;labelBackgroundColor=none;sketch=1;fontSize=13;fontColor=#454545;strokeColor=#1A1A1A;fillColor=none;" parent="4n0d5DJK6220EFRmUgS7-1" vertex="1">
          <mxGeometry x="107" y="85" width="20" height="20" as="geometry" />
        </mxCell>
        <mxCell id="WqpIsoiFvAImHQMnmrq4-14" value="" style="ellipse;html=1;shape=endState;fillColor=#000000;strokeColor=#ff0000;shadow=1;glass=0;dashed=1;dashPattern=1 1;labelBackgroundColor=none;sketch=1;fontSize=13;fontColor=#454545;" parent="4n0d5DJK6220EFRmUgS7-1" vertex="1">
          <mxGeometry x="77" y="140" width="30" height="30" as="geometry" />
        </mxCell>
        <mxCell id="WqpIsoiFvAImHQMnmrq4-16" value="&lt;b&gt;&lt;font style=&quot;font-size: 15px&quot;&gt;Claim Form&lt;/font&gt;&lt;/b&gt;" style="rounded=1;whiteSpace=wrap;html=1;shadow=1;glass=0;dashed=1;dashPattern=1 1;labelBackgroundColor=none;sketch=1;fontSize=13;fontColor=#454545;strokeColor=#1A1A1A;fillColor=none;align=center;verticalAlign=middle;" parent="4n0d5DJK6220EFRmUgS7-1" vertex="1">
          <mxGeometry x="70" y="125" width="180" height="60" as="geometry" />
        </mxCell>
        <mxCell id="WqpIsoiFvAImHQMnmrq4-18" value="&lt;b&gt;&lt;font style=&quot;font-size: 15px&quot;&gt;Login&lt;/font&gt;&lt;/b&gt;" style="rounded=1;whiteSpace=wrap;html=1;shadow=1;glass=0;dashed=1;dashPattern=1 1;labelBackgroundColor=none;sketch=1;fontSize=13;fontColor=#454545;strokeColor=#1A1A1A;fillColor=none;align=center;verticalAlign=middle;" parent="4n0d5DJK6220EFRmUgS7-1" vertex="1">
          <mxGeometry x="70" y="195" width="180" height="60" as="geometry" />
        </mxCell>
        <mxCell id="WqpIsoiFvAImHQMnmrq4-19" value="&lt;b&gt;&lt;font style=&quot;font-size: 15px&quot;&gt;Dashboard&lt;/font&gt;&lt;/b&gt;" style="rounded=1;whiteSpace=wrap;html=1;shadow=1;glass=0;dashed=1;dashPattern=1 1;labelBackgroundColor=none;sketch=1;fontSize=13;fontColor=#454545;strokeColor=#1A1A1A;fillColor=none;align=center;verticalAlign=middle;" parent="4n0d5DJK6220EFRmUgS7-1" vertex="1">
          <mxGeometry x="70" y="267" width="180" height="60" as="geometry" />
        </mxCell>
        <mxCell id="WqpIsoiFvAImHQMnmrq4-20" value="" style="ellipse;html=1;shape=endState;fillColor=#000000;strokeColor=#ff0000;shadow=1;glass=0;dashed=1;dashPattern=1 1;labelBackgroundColor=none;sketch=1;fontSize=15;fontColor=#454545;" parent="4n0d5DJK6220EFRmUgS7-1" vertex="1">
          <mxGeometry x="80" y="210" width="30" height="30" as="geometry" />
        </mxCell>
        <mxCell id="WqpIsoiFvAImHQMnmrq4-21" value="" style="ellipse;html=1;shape=endState;fillColor=#000000;strokeColor=#ff0000;shadow=1;glass=0;dashed=1;dashPattern=1 1;labelBackgroundColor=none;sketch=1;fontSize=15;fontColor=#454545;" parent="4n0d5DJK6220EFRmUgS7-1" vertex="1">
          <mxGeometry x="80" y="282" width="30" height="30" as="geometry" />
        </mxCell>
        <mxCell id="WqpIsoiFvAImHQMnmrq4-22" value="" style="whiteSpace=wrap;html=1;shadow=1;glass=0;dashed=1;dashPattern=1 1;sketch=1;fontColor=#333333;strokeColor=#1A1A1A;fillColor=none;" parent="4n0d5DJK6220EFRmUgS7-1" vertex="1">
          <mxGeometry x="50" y="380" width="230" height="500" as="geometry" />
        </mxCell>
        <mxCell id="WqpIsoiFvAImHQMnmrq4-23" value="Admin Pages" style="rounded=0;shadow=1;glass=0;dashed=1;dashPattern=1 1;sketch=1;fontSize=13;fontColor=default;strokeColor=#1A1A1A;fillColor=none;align=center;labelPosition=center;verticalLabelPosition=middle;verticalAlign=middle;labelBackgroundColor=none;whiteSpace=wrap;" parent="4n0d5DJK6220EFRmUgS7-1" vertex="1">
          <mxGeometry x="50" y="350" width="230" height="30" as="geometry" />
        </mxCell>
        <mxCell id="WqpIsoiFvAImHQMnmrq4-25" value="" style="ellipse;html=1;shape=endState;fillColor=#000000;strokeColor=#ff0000;shadow=1;glass=0;dashed=1;dashPattern=1 1;labelBackgroundColor=none;sketch=1;fontSize=13;fontColor=#454545;" parent="4n0d5DJK6220EFRmUgS7-1" vertex="1">
          <mxGeometry x="77" y="410" width="30" height="30" as="geometry" />
        </mxCell>
        <mxCell id="02JnvlSmlGlPBERRK4Ya-73" style="edgeStyle=none;rounded=0;orthogonalLoop=1;jettySize=auto;html=1;fontSize=15;fontColor=#FFFFFF;entryX=0;entryY=0.25;entryDx=0;entryDy=0;" parent="4n0d5DJK6220EFRmUgS7-1" source="WqpIsoiFvAImHQMnmrq4-26" target="02JnvlSmlGlPBERRK4Ya-76" edge="1">
          <mxGeometry relative="1" as="geometry">
            <mxPoint x="889.9999999999995" y="87.72151898734182" as="targetPoint" />
          </mxGeometry>
        </mxCell>
        <mxCell id="WqpIsoiFvAImHQMnmrq4-26" value="&lt;b&gt;&lt;font style=&quot;font-size: 15px&quot;&gt;Dashboard&lt;/font&gt;&lt;/b&gt;" style="rounded=1;whiteSpace=wrap;html=1;shadow=1;glass=0;dashed=1;dashPattern=1 1;labelBackgroundColor=none;sketch=1;fontSize=13;fontColor=#454545;strokeColor=#1A1A1A;fillColor=none;align=center;verticalAlign=middle;" parent="4n0d5DJK6220EFRmUgS7-1" vertex="1">
          <mxGeometry x="70" y="395" width="180" height="60" as="geometry" />
        </mxCell>
        <mxCell id="WqpIsoiFvAImHQMnmrq4-27" value="&lt;b&gt;&lt;font style=&quot;font-size: 15px&quot;&gt;Admin Login&lt;/font&gt;&lt;/b&gt;" style="rounded=1;whiteSpace=wrap;html=1;shadow=1;glass=0;dashed=1;dashPattern=1 1;labelBackgroundColor=none;sketch=1;fontSize=13;fontColor=#454545;strokeColor=#1A1A1A;fillColor=none;align=center;verticalAlign=middle;" parent="4n0d5DJK6220EFRmUgS7-1" vertex="1">
          <mxGeometry x="70" y="465" width="180" height="60" as="geometry" />
        </mxCell>
        <mxCell id="02JnvlSmlGlPBERRK4Ya-86" style="edgeStyle=none;rounded=0;orthogonalLoop=1;jettySize=auto;html=1;exitX=1;exitY=0.5;exitDx=0;exitDy=0;entryX=0;entryY=0.75;entryDx=0;entryDy=0;fontSize=15;fontColor=#FFFFFF;" parent="4n0d5DJK6220EFRmUgS7-1" source="WqpIsoiFvAImHQMnmrq4-28" target="02JnvlSmlGlPBERRK4Ya-83" edge="1">
          <mxGeometry relative="1" as="geometry" />
        </mxCell>
        <mxCell id="WqpIsoiFvAImHQMnmrq4-28" value="&lt;span style=&quot;font-size: 15px&quot;&gt;&lt;b&gt;Claims List&lt;br&gt;&lt;/b&gt;&lt;/span&gt;" style="rounded=1;whiteSpace=wrap;html=1;shadow=1;glass=0;dashed=1;dashPattern=1 1;labelBackgroundColor=none;sketch=1;fontSize=13;fontColor=#454545;strokeColor=#1A1A1A;fillColor=none;align=center;verticalAlign=middle;" parent="4n0d5DJK6220EFRmUgS7-1" vertex="1">
          <mxGeometry x="70" y="537" width="180" height="53" as="geometry" />
        </mxCell>
        <mxCell id="WqpIsoiFvAImHQMnmrq4-29" value="" style="ellipse;html=1;shape=endState;fillColor=#000000;strokeColor=#ff0000;shadow=1;glass=0;dashed=1;dashPattern=1 1;labelBackgroundColor=none;sketch=1;fontSize=15;fontColor=#454545;" parent="4n0d5DJK6220EFRmUgS7-1" vertex="1">
          <mxGeometry x="80" y="480" width="30" height="30" as="geometry" />
        </mxCell>
        <mxCell id="WqpIsoiFvAImHQMnmrq4-30" value="" style="ellipse;html=1;shape=endState;fillColor=#000000;strokeColor=#ff0000;shadow=1;glass=0;dashed=1;dashPattern=1 1;labelBackgroundColor=none;sketch=1;fontSize=15;fontColor=#454545;" parent="4n0d5DJK6220EFRmUgS7-1" vertex="1">
          <mxGeometry x="80" y="552" width="30" height="30" as="geometry" />
        </mxCell>
        <mxCell id="WqpIsoiFvAImHQMnmrq4-31" value="" style="shape=umlActor;verticalLabelPosition=bottom;verticalAlign=top;html=1;shadow=1;glass=0;dashed=1;dashPattern=1 1;labelBackgroundColor=none;sketch=1;fontSize=15;fontColor=#454545;strokeColor=#1A1A1A;fillColor=none;" parent="4n0d5DJK6220EFRmUgS7-1" vertex="1">
          <mxGeometry x="100" y="355" width="20" height="20" as="geometry" />
        </mxCell>
        <mxCell id="02JnvlSmlGlPBERRK4Ya-0" value="&lt;span style=&quot;font-size: 15px&quot;&gt;&lt;b&gt;Item Numbers&lt;br&gt;&lt;/b&gt;&lt;/span&gt;" style="rounded=1;whiteSpace=wrap;html=1;shadow=1;glass=0;dashed=1;dashPattern=1 1;labelBackgroundColor=none;sketch=1;fontSize=13;fontColor=#454545;strokeColor=#1A1A1A;fillColor=none;align=center;verticalAlign=middle;" parent="4n0d5DJK6220EFRmUgS7-1" vertex="1">
          <mxGeometry x="70" y="600" width="180" height="40" as="geometry" />
        </mxCell>
        <mxCell id="02JnvlSmlGlPBERRK4Ya-1" value="&lt;span style=&quot;font-size: 15px&quot;&gt;&lt;b&gt;Group Numbers&lt;br&gt;&lt;/b&gt;&lt;/span&gt;" style="rounded=1;whiteSpace=wrap;html=1;shadow=1;glass=0;dashed=1;dashPattern=1 1;labelBackgroundColor=none;sketch=1;fontSize=13;fontColor=#454545;strokeColor=#1A1A1A;fillColor=none;align=center;verticalAlign=middle;" parent="4n0d5DJK6220EFRmUgS7-1" vertex="1">
          <mxGeometry x="70" y="650" width="180" height="40" as="geometry" />
        </mxCell>
        <mxCell id="02JnvlSmlGlPBERRK4Ya-2" value="&lt;span style=&quot;font-size: 15px&quot;&gt;&lt;b&gt;Product Serial Numbers&lt;br&gt;&lt;/b&gt;&lt;/span&gt;" style="rounded=1;whiteSpace=wrap;html=1;shadow=1;glass=0;dashed=1;dashPattern=1 1;labelBackgroundColor=none;sketch=1;fontSize=13;fontColor=#454545;strokeColor=#1A1A1A;fillColor=none;align=center;verticalAlign=middle;" parent="4n0d5DJK6220EFRmUgS7-1" vertex="1">
          <mxGeometry x="70" y="700" width="180" height="40" as="geometry" />
        </mxCell>
        <mxCell id="02JnvlSmlGlPBERRK4Ya-3" value="&lt;span style=&quot;font-size: 15px&quot;&gt;&lt;b&gt;Product Types&lt;br&gt;&lt;/b&gt;&lt;/span&gt;" style="rounded=1;whiteSpace=wrap;html=1;shadow=1;glass=0;dashed=1;dashPattern=1 1;labelBackgroundColor=none;sketch=1;fontSize=13;fontColor=#454545;strokeColor=#1A1A1A;fillColor=none;align=center;verticalAlign=middle;" parent="4n0d5DJK6220EFRmUgS7-1" vertex="1">
          <mxGeometry x="70" y="750" width="180" height="40" as="geometry" />
        </mxCell>
        <mxCell id="02JnvlSmlGlPBERRK4Ya-4" value="" style="swimlane;childLayout=stackLayout;horizontal=1;fillColor=none;horizontalStack=1;resizeParent=1;resizeParentMax=0;resizeLast=0;collapsible=0;strokeColor=none;stackBorder=10;stackSpacing=-12;resizable=1;align=center;points=[];fontColor=#000000;shadow=1;glass=0;dashed=1;dashPattern=1 1;labelBackgroundColor=none;sketch=1;fontSize=15;html=0;" parent="4n0d5DJK6220EFRmUgS7-1" vertex="1">
          <mxGeometry x="250" y="580" width="170" height="60" as="geometry" />
        </mxCell>
        <mxCell id="02JnvlSmlGlPBERRK4Ya-5" value="List Items" style="shape=step;perimeter=stepPerimeter;fixedSize=1;points=[];shadow=1;glass=0;dashed=1;dashPattern=1 1;labelBackgroundColor=none;sketch=1;fontSize=15;fontColor=#454545;strokeColor=#1A1A1A;fillColor=none;html=0;" parent="02JnvlSmlGlPBERRK4Ya-4" vertex="1">
          <mxGeometry x="10" y="33" width="150" height="17" as="geometry" />
        </mxCell>
        <mxCell id="02JnvlSmlGlPBERRK4Ya-8" value="" style="swimlane;childLayout=stackLayout;horizontal=1;fillColor=none;horizontalStack=1;resizeParent=1;resizeParentMax=0;resizeLast=0;collapsible=0;strokeColor=none;stackBorder=10;stackSpacing=-12;resizable=1;align=center;points=[];fontColor=#000000;shadow=1;glass=0;dashed=1;dashPattern=1 1;labelBackgroundColor=none;sketch=1;fontSize=15;html=0;verticalAlign=middle;labelPosition=center;verticalLabelPosition=middle;" parent="4n0d5DJK6220EFRmUgS7-1" vertex="1">
          <mxGeometry x="250" y="630" width="190" height="60" as="geometry" />
        </mxCell>
        <mxCell id="02JnvlSmlGlPBERRK4Ya-9" value="List Groups" style="shape=step;perimeter=stepPerimeter;fixedSize=1;points=[];shadow=1;glass=0;dashed=1;dashPattern=1 1;labelBackgroundColor=none;sketch=1;fontSize=15;fontColor=#454545;strokeColor=#1A1A1A;fillColor=none;html=0;" parent="02JnvlSmlGlPBERRK4Ya-8" vertex="1">
          <mxGeometry x="10" y="33" width="170" height="17" as="geometry" />
        </mxCell>
        <mxCell id="02JnvlSmlGlPBERRK4Ya-12" value="List Products Serial number" style="shape=step;perimeter=stepPerimeter;fixedSize=1;points=[];shadow=1;glass=0;dashed=1;dashPattern=1 1;labelBackgroundColor=none;sketch=1;fontSize=15;fontColor=#454545;strokeColor=#1A1A1A;fillColor=none;html=0;" parent="4n0d5DJK6220EFRmUgS7-1" vertex="1">
          <mxGeometry x="260" y="710" width="261" height="17" as="geometry" />
        </mxCell>
        <mxCell id="02JnvlSmlGlPBERRK4Ya-13" value="List Product Types" style="shape=step;perimeter=stepPerimeter;fixedSize=1;points=[];shadow=1;glass=0;dashed=1;dashPattern=1 1;labelBackgroundColor=none;sketch=1;fontSize=15;fontColor=#454545;strokeColor=#1A1A1A;fillColor=none;html=0;" parent="4n0d5DJK6220EFRmUgS7-1" vertex="1">
          <mxGeometry x="260" y="760" width="190" height="17" as="geometry" />
        </mxCell>
        <mxCell id="02JnvlSmlGlPBERRK4Ya-19" style="edgeStyle=none;rounded=0;orthogonalLoop=1;jettySize=auto;html=1;exitX=0.5;exitY=1;exitDx=0;exitDy=0;fontSize=15;fontColor=#454545;" parent="4n0d5DJK6220EFRmUgS7-1" source="02JnvlSmlGlPBERRK4Ya-15" target="WqpIsoiFvAImHQMnmrq4-16" edge="1">
          <mxGeometry relative="1" as="geometry" />
        </mxCell>
        <mxCell id="02JnvlSmlGlPBERRK4Ya-15" value="" style="shape=ext;double=1;rounded=0;whiteSpace=wrap;html=1;shadow=1;glass=0;dashed=1;dashPattern=1 1;labelBackgroundColor=none;sketch=1;fontSize=15;strokeColor=#6c8ebf;fillColor=#dae8fc;" parent="4n0d5DJK6220EFRmUgS7-1" vertex="1">
          <mxGeometry x="35" y="-950" width="295" height="270" as="geometry" />
        </mxCell>
        <mxCell id="02JnvlSmlGlPBERRK4Ya-16" value="Claim Form Page" style="shape=ext;double=1;rounded=0;whiteSpace=wrap;html=1;shadow=1;glass=0;dashed=1;dashPattern=1 1;labelBackgroundColor=none;sketch=1;fontSize=15;fontColor=#454545;strokeColor=#1A1A1A;fillColor=none;" parent="4n0d5DJK6220EFRmUgS7-1" vertex="1">
          <mxGeometry x="35" y="-950" width="295" height="40" as="geometry" />
        </mxCell>
        <mxCell id="02JnvlSmlGlPBERRK4Ya-20" value="All the form fields......" style="shape=ext;double=1;rounded=0;whiteSpace=wrap;html=1;shadow=1;glass=0;dashed=1;dashPattern=1 1;labelBackgroundColor=none;sketch=1;fontSize=15;fontColor=#454545;strokeColor=#1A1A1A;fillColor=none;" parent="4n0d5DJK6220EFRmUgS7-1" vertex="1">
          <mxGeometry x="80" y="-900" width="200" height="150" as="geometry" />
        </mxCell>
        <mxCell id="02JnvlSmlGlPBERRK4Ya-21" value="Submit" style="shape=ext;double=1;rounded=0;whiteSpace=wrap;html=1;shadow=1;glass=0;labelBackgroundColor=none;sketch=1;fontSize=15;fontColor=#454545;strokeColor=#1A1A1A;fillColor=#36BCFF;fillStyle=solid;" parent="4n0d5DJK6220EFRmUgS7-1" vertex="1">
          <mxGeometry x="117.5" y="-740" width="125" height="30" as="geometry" />
        </mxCell>
        <mxCell id="02JnvlSmlGlPBERRK4Ya-23" style="edgeStyle=none;rounded=0;orthogonalLoop=1;jettySize=auto;html=1;fontSize=15;fontColor=#454545;" parent="4n0d5DJK6220EFRmUgS7-1" source="02JnvlSmlGlPBERRK4Ya-22" target="02JnvlSmlGlPBERRK4Ya-21" edge="1">
          <mxGeometry relative="1" as="geometry" />
        </mxCell>
        <mxCell id="02JnvlSmlGlPBERRK4Ya-22" value="Claim Submit" style="shape=module;align=left;spacingLeft=20;align=center;verticalAlign=top;shadow=1;glass=0;labelBackgroundColor=none;sketch=1;fillStyle=solid;fontSize=15;fontColor=#454545;strokeColor=#1A1A1A;fillColor=#36BCFF;html=0;jettyWidth=25;jettyHeight=12;labelBorderColor=none;" parent="4n0d5DJK6220EFRmUgS7-1" vertex="1">
          <mxGeometry x="-340" y="-900" width="300" height="200" as="geometry" />
        </mxCell>
        <mxCell id="02JnvlSmlGlPBERRK4Ya-27" value="&lt;ol style=&quot;line-height: 1.2&quot;&gt;&lt;li&gt;&lt;span&gt;Insert all of the data into database calims table&lt;/span&gt;&lt;/li&gt;&lt;li&gt;Register the user with Name, Email and Password&lt;/li&gt;&lt;li&gt;Email the user the generated password&lt;/li&gt;&lt;li&gt;Redirect user to dashboard page&lt;/li&gt;&lt;/ol&gt;" style="text;strokeColor=none;fillColor=none;html=1;whiteSpace=wrap;verticalAlign=middle;overflow=hidden;shadow=1;glass=0;labelBackgroundColor=none;labelBorderColor=none;sketch=1;fillStyle=solid;fontSize=15;fontColor=#FFFFFF;align=left;" parent="4n0d5DJK6220EFRmUgS7-1" vertex="1">
          <mxGeometry x="-330" y="-880" width="280" height="170" as="geometry" />
        </mxCell>
        <mxCell id="02JnvlSmlGlPBERRK4Ya-34" style="edgeStyle=none;rounded=0;orthogonalLoop=1;jettySize=auto;html=1;fontSize=15;fontColor=#FFFFFF;" parent="4n0d5DJK6220EFRmUgS7-1" source="02JnvlSmlGlPBERRK4Ya-29" target="WqpIsoiFvAImHQMnmrq4-18" edge="1">
          <mxGeometry relative="1" as="geometry" />
        </mxCell>
        <mxCell id="02JnvlSmlGlPBERRK4Ya-81" style="edgeStyle=none;rounded=0;orthogonalLoop=1;jettySize=auto;html=1;exitX=0.75;exitY=1;exitDx=0;exitDy=0;fontSize=15;fontColor=#FFFFFF;" parent="4n0d5DJK6220EFRmUgS7-1" source="02JnvlSmlGlPBERRK4Ya-29" target="WqpIsoiFvAImHQMnmrq4-27" edge="1">
          <mxGeometry relative="1" as="geometry" />
        </mxCell>
        <mxCell id="02JnvlSmlGlPBERRK4Ya-29" value="" style="shape=ext;double=1;rounded=0;whiteSpace=wrap;html=1;shadow=1;glass=0;dashed=1;dashPattern=1 1;labelBackgroundColor=none;sketch=1;fontSize=15;strokeColor=#6c8ebf;fillColor=#dae8fc;" parent="4n0d5DJK6220EFRmUgS7-1" vertex="1">
          <mxGeometry x="499" y="-950" width="295" height="270" as="geometry" />
        </mxCell>
        <mxCell id="02JnvlSmlGlPBERRK4Ya-30" value="Login Page" style="shape=ext;double=1;rounded=0;whiteSpace=wrap;html=1;shadow=1;glass=0;dashed=1;dashPattern=1 1;labelBackgroundColor=none;sketch=1;fontSize=15;fontColor=#454545;strokeColor=#1A1A1A;fillColor=none;" parent="4n0d5DJK6220EFRmUgS7-1" vertex="1">
          <mxGeometry x="499" y="-950" width="295" height="40" as="geometry" />
        </mxCell>
        <mxCell id="02JnvlSmlGlPBERRK4Ya-31" value="Email..." style="shape=ext;double=1;rounded=0;whiteSpace=wrap;html=1;shadow=1;glass=0;dashed=1;dashPattern=1 1;labelBackgroundColor=none;sketch=1;fontSize=15;fontColor=#454545;strokeColor=#1A1A1A;fillColor=none;" parent="4n0d5DJK6220EFRmUgS7-1" vertex="1">
          <mxGeometry x="544" y="-900" width="200" height="50" as="geometry" />
        </mxCell>
        <mxCell id="02JnvlSmlGlPBERRK4Ya-35" style="edgeStyle=none;rounded=0;orthogonalLoop=1;jettySize=auto;html=1;exitX=0;exitY=0.5;exitDx=0;exitDy=0;fontSize=15;fontColor=#FFFFFF;entryX=1;entryY=0.093;entryDx=0;entryDy=0;entryPerimeter=0;" parent="4n0d5DJK6220EFRmUgS7-1" source="02JnvlSmlGlPBERRK4Ya-32" target="02JnvlSmlGlPBERRK4Ya-36" edge="1">
          <mxGeometry relative="1" as="geometry">
            <mxPoint x="-120" y="-550" as="targetPoint" />
          </mxGeometry>
        </mxCell>
        <mxCell id="02JnvlSmlGlPBERRK4Ya-32" value="Login" style="shape=ext;double=1;rounded=0;whiteSpace=wrap;html=1;shadow=1;glass=0;labelBackgroundColor=none;sketch=1;fontSize=15;fontColor=#454545;strokeColor=#1A1A1A;fillColor=#36BCFF;fillStyle=solid;" parent="4n0d5DJK6220EFRmUgS7-1" vertex="1">
          <mxGeometry x="581.5" y="-740" width="125" height="30" as="geometry" />
        </mxCell>
        <mxCell id="02JnvlSmlGlPBERRK4Ya-33" value="Password..." style="shape=ext;double=1;rounded=0;whiteSpace=wrap;html=1;shadow=1;glass=0;dashed=1;dashPattern=1 1;labelBackgroundColor=none;sketch=1;fontSize=15;fontColor=#454545;strokeColor=#1A1A1A;fillColor=none;" parent="4n0d5DJK6220EFRmUgS7-1" vertex="1">
          <mxGeometry x="546.5" y="-840" width="200" height="50" as="geometry" />
        </mxCell>
        <mxCell id="02JnvlSmlGlPBERRK4Ya-36" value="Login In" style="shape=module;align=left;spacingLeft=20;align=center;verticalAlign=top;shadow=1;glass=0;labelBackgroundColor=none;sketch=1;fillStyle=solid;fontSize=15;fontColor=#454545;strokeColor=#1A1A1A;fillColor=#36BCFF;html=0;jettyWidth=25;jettyHeight=12;labelBorderColor=none;" parent="4n0d5DJK6220EFRmUgS7-1" vertex="1">
          <mxGeometry x="-340" y="-660" width="270" height="160" as="geometry" />
        </mxCell>
        <mxCell id="02JnvlSmlGlPBERRK4Ya-37" value="&lt;ol style=&quot;line-height: 1.2&quot;&gt;&lt;li&gt;Verify the user login credentials&lt;/li&gt;&lt;li&gt;Redirect the user to dashboard page&lt;/li&gt;&lt;/ol&gt;" style="text;strokeColor=none;fillColor=none;html=1;whiteSpace=wrap;verticalAlign=middle;overflow=hidden;shadow=1;glass=0;labelBackgroundColor=none;labelBorderColor=none;sketch=1;fillStyle=solid;fontSize=15;fontColor=#FFFFFF;align=left;" parent="4n0d5DJK6220EFRmUgS7-1" vertex="1">
          <mxGeometry x="-330" y="-630" width="260" height="100" as="geometry" />
        </mxCell>
        <mxCell id="02JnvlSmlGlPBERRK4Ya-39" value="Dashboard Page" style="shape=ext;double=1;rounded=0;whiteSpace=wrap;html=1;shadow=1;glass=0;dashed=1;dashPattern=1 1;labelBackgroundColor=none;sketch=1;fontSize=15;fontColor=#454545;strokeColor=#1A1A1A;fillColor=none;" parent="4n0d5DJK6220EFRmUgS7-1" vertex="1">
          <mxGeometry x="390" y="-440" width="425" height="40" as="geometry" />
        </mxCell>
        <mxCell id="02JnvlSmlGlPBERRK4Ya-40" value="Claim" style="shape=ext;double=1;rounded=0;whiteSpace=wrap;html=1;shadow=1;glass=0;dashed=1;dashPattern=1 1;labelBackgroundColor=none;sketch=1;fontSize=15;fontColor=#454545;strokeColor=#1A1A1A;fillColor=none;" parent="4n0d5DJK6220EFRmUgS7-1" vertex="1">
          <mxGeometry x="441" y="-370" width="95" height="50" as="geometry" />
        </mxCell>
        <mxCell id="02JnvlSmlGlPBERRK4Ya-42" value="Inspections" style="shape=ext;double=1;rounded=0;whiteSpace=wrap;html=1;shadow=1;glass=0;dashed=1;dashPattern=1 1;labelBackgroundColor=none;sketch=1;fontSize=15;fontColor=#454545;strokeColor=#1A1A1A;fillColor=none;" parent="4n0d5DJK6220EFRmUgS7-1" vertex="1">
          <mxGeometry x="545.5" y="-370" width="100.5" height="50" as="geometry" />
        </mxCell>
        <mxCell id="02JnvlSmlGlPBERRK4Ya-43" value="Decision" style="shape=ext;double=1;rounded=0;whiteSpace=wrap;html=1;shadow=1;glass=0;dashed=1;dashPattern=1 1;labelBackgroundColor=none;sketch=1;fontSize=15;fontColor=#454545;strokeColor=#1A1A1A;fillColor=none;" parent="4n0d5DJK6220EFRmUgS7-1" vertex="1">
          <mxGeometry x="659.5" y="-370" width="100.5" height="50" as="geometry" />
        </mxCell>
        <mxCell id="02JnvlSmlGlPBERRK4Ya-44" value="Claim" style="shape=ext;double=1;rounded=0;whiteSpace=wrap;html=1;shadow=1;glass=0;dashed=1;dashPattern=1 1;labelBackgroundColor=none;sketch=1;fontSize=15;fontColor=#454545;strokeColor=#1A1A1A;fillColor=none;" parent="4n0d5DJK6220EFRmUgS7-1" vertex="1">
          <mxGeometry x="441" y="-310" width="95" height="50" as="geometry" />
        </mxCell>
        <mxCell id="02JnvlSmlGlPBERRK4Ya-45" value="Inspections" style="shape=ext;double=1;rounded=0;whiteSpace=wrap;html=1;shadow=1;glass=0;dashed=1;dashPattern=1 1;labelBackgroundColor=none;sketch=1;fontSize=15;fontColor=#454545;strokeColor=#1A1A1A;fillColor=none;" parent="4n0d5DJK6220EFRmUgS7-1" vertex="1">
          <mxGeometry x="545.5" y="-310" width="100.5" height="50" as="geometry" />
        </mxCell>
        <mxCell id="02JnvlSmlGlPBERRK4Ya-46" value="Decision" style="shape=ext;double=1;rounded=0;whiteSpace=wrap;html=1;shadow=1;glass=0;dashed=1;dashPattern=1 1;labelBackgroundColor=none;sketch=1;fontSize=15;fontColor=#454545;strokeColor=#1A1A1A;fillColor=none;" parent="4n0d5DJK6220EFRmUgS7-1" vertex="1">
          <mxGeometry x="659.5" y="-310" width="100.5" height="50" as="geometry" />
        </mxCell>
        <mxCell id="02JnvlSmlGlPBERRK4Ya-47" value="Claim" style="shape=ext;double=1;rounded=0;whiteSpace=wrap;html=1;shadow=1;glass=0;dashed=1;dashPattern=1 1;labelBackgroundColor=none;sketch=1;fontSize=15;fontColor=#454545;strokeColor=#1A1A1A;fillColor=none;" parent="4n0d5DJK6220EFRmUgS7-1" vertex="1">
          <mxGeometry x="441" y="-250" width="95" height="50" as="geometry" />
        </mxCell>
        <mxCell id="02JnvlSmlGlPBERRK4Ya-48" value="Inspections" style="shape=ext;double=1;rounded=0;whiteSpace=wrap;html=1;shadow=1;glass=0;dashed=1;dashPattern=1 1;labelBackgroundColor=none;sketch=1;fontSize=15;fontColor=#454545;strokeColor=#1A1A1A;fillColor=none;" parent="4n0d5DJK6220EFRmUgS7-1" vertex="1">
          <mxGeometry x="545.5" y="-250" width="100.5" height="50" as="geometry" />
        </mxCell>
        <mxCell id="02JnvlSmlGlPBERRK4Ya-49" value="Decision" style="shape=ext;double=1;rounded=0;whiteSpace=wrap;html=1;shadow=1;glass=0;dashed=1;dashPattern=1 1;labelBackgroundColor=none;sketch=1;fontSize=15;fontColor=#454545;strokeColor=#1A1A1A;fillColor=none;" parent="4n0d5DJK6220EFRmUgS7-1" vertex="1">
          <mxGeometry x="659.5" y="-250" width="100.5" height="50" as="geometry" />
        </mxCell>
        <mxCell id="02JnvlSmlGlPBERRK4Ya-50" value="Claim" style="shape=ext;double=1;rounded=0;whiteSpace=wrap;html=1;shadow=1;glass=0;dashed=1;dashPattern=1 1;labelBackgroundColor=none;sketch=1;fontSize=15;fontColor=#454545;strokeColor=#1A1A1A;fillColor=none;" parent="4n0d5DJK6220EFRmUgS7-1" vertex="1">
          <mxGeometry x="441" y="-190" width="95" height="50" as="geometry" />
        </mxCell>
        <mxCell id="02JnvlSmlGlPBERRK4Ya-51" value="Inspections" style="shape=ext;double=1;rounded=0;whiteSpace=wrap;html=1;shadow=1;glass=0;dashed=1;dashPattern=1 1;labelBackgroundColor=none;sketch=1;fontSize=15;fontColor=#454545;strokeColor=#1A1A1A;fillColor=none;" parent="4n0d5DJK6220EFRmUgS7-1" vertex="1">
          <mxGeometry x="545.5" y="-190" width="100.5" height="50" as="geometry" />
        </mxCell>
        <mxCell id="02JnvlSmlGlPBERRK4Ya-52" value="Decision" style="shape=ext;double=1;rounded=0;whiteSpace=wrap;html=1;shadow=1;glass=0;dashed=1;dashPattern=1 1;labelBackgroundColor=none;sketch=1;fontSize=15;fontColor=#454545;strokeColor=#1A1A1A;fillColor=none;" parent="4n0d5DJK6220EFRmUgS7-1" vertex="1">
          <mxGeometry x="659.5" y="-190" width="100.5" height="50" as="geometry" />
        </mxCell>
        <mxCell id="02JnvlSmlGlPBERRK4Ya-54" value="&lt;b&gt;&lt;font style=&quot;font-size: 15px&quot;&gt;Users&lt;br&gt;&lt;/font&gt;&lt;/b&gt;" style="rounded=1;whiteSpace=wrap;html=1;shadow=1;glass=0;dashed=1;dashPattern=1 1;labelBackgroundColor=none;sketch=1;fontSize=13;fontColor=#454545;strokeColor=#1A1A1A;fillColor=none;align=center;verticalAlign=middle;" parent="4n0d5DJK6220EFRmUgS7-1" vertex="1">
          <mxGeometry x="70" y="810" width="180" height="60" as="geometry" />
        </mxCell>
        <mxCell id="02JnvlSmlGlPBERRK4Ya-55" value="" style="ellipse;html=1;shape=endState;fillColor=#000000;strokeColor=#ff0000;shadow=1;glass=0;dashed=1;dashPattern=1 1;labelBackgroundColor=none;sketch=1;fontSize=15;fontColor=#454545;" parent="4n0d5DJK6220EFRmUgS7-1" vertex="1">
          <mxGeometry x="80" y="825" width="30" height="30" as="geometry" />
        </mxCell>
        <mxCell id="02JnvlSmlGlPBERRK4Ya-75" value="" style="shape=ext;double=1;rounded=0;whiteSpace=wrap;html=1;shadow=1;glass=0;dashed=1;dashPattern=1 1;labelBackgroundColor=none;sketch=1;fontSize=15;strokeColor=#6c8ebf;fillColor=#dae8fc;" parent="4n0d5DJK6220EFRmUgS7-1" vertex="1">
          <mxGeometry x="880" y="25" width="510" height="355" as="geometry" />
        </mxCell>
        <mxCell id="02JnvlSmlGlPBERRK4Ya-76" value="Dashboard" style="shape=ext;double=1;rounded=0;whiteSpace=wrap;html=1;shadow=1;glass=0;dashed=1;dashPattern=1 1;labelBackgroundColor=none;sketch=1;fontSize=15;fontColor=#454545;strokeColor=#1A1A1A;fillColor=none;" parent="4n0d5DJK6220EFRmUgS7-1" vertex="1">
          <mxGeometry x="880" y="25" width="510" height="40" as="geometry" />
        </mxCell>
        <mxCell id="02JnvlSmlGlPBERRK4Ya-77" value="Graphs..." style="shape=ext;double=1;rounded=0;whiteSpace=wrap;html=1;shadow=1;glass=0;dashed=1;dashPattern=1 1;labelBackgroundColor=none;sketch=1;fontSize=15;fontColor=#454545;strokeColor=#1A1A1A;fillColor=none;" parent="4n0d5DJK6220EFRmUgS7-1" vertex="1">
          <mxGeometry x="910" y="80" width="260" height="175" as="geometry" />
        </mxCell>
        <mxCell id="02JnvlSmlGlPBERRK4Ya-80" value="Graphs..." style="shape=ext;double=1;rounded=0;whiteSpace=wrap;html=1;shadow=1;glass=0;dashed=1;dashPattern=1 1;labelBackgroundColor=none;sketch=1;fontSize=15;fontColor=#454545;strokeColor=#1A1A1A;fillColor=none;" parent="4n0d5DJK6220EFRmUgS7-1" vertex="1">
          <mxGeometry x="1190" y="130" width="190" height="120" as="geometry" />
        </mxCell>
        <mxCell id="02JnvlSmlGlPBERRK4Ya-83" value="Claims List" style="shape=ext;double=1;rounded=0;whiteSpace=wrap;html=1;shadow=1;glass=0;dashed=1;dashPattern=1 1;labelBackgroundColor=none;sketch=1;fontSize=15;fontColor=#454545;strokeColor=#1A1A1A;fillColor=none;" parent="4n0d5DJK6220EFRmUgS7-1" vertex="1">
          <mxGeometry x="880" y="410" width="510" height="40" as="geometry" />
        </mxCell>
        <mxCell id="02JnvlSmlGlPBERRK4Ya-101" value="All of the claims report fields....." style="text;html=1;align=center;verticalAlign=middle;resizable=0;points=[];autosize=1;strokeColor=none;fillColor=none;fontSize=15;fontColor=#FFFFFF;" parent="4n0d5DJK6220EFRmUgS7-1" vertex="1">
          <mxGeometry x="1035" y="510" width="220" height="20" as="geometry" />
        </mxCell>
        <mxCell id="02JnvlSmlGlPBERRK4Ya-147" value="&lt;font color=&quot;#121212&quot;&gt;...............&lt;/font&gt;" style="text;html=1;align=center;verticalAlign=middle;resizable=0;points=[];autosize=1;strokeColor=none;fillColor=none;fontSize=15;fontColor=#FFFFFF;" parent="4n0d5DJK6220EFRmUgS7-1" vertex="1">
          <mxGeometry x="1090" y="710" width="80" height="20" as="geometry" />
        </mxCell>
        <mxCell id="02JnvlSmlGlPBERRK4Ya-148" value="" style="shape=table;startSize=0;container=1;collapsible=0;childLayout=tableLayout;shadow=1;glass=0;labelBackgroundColor=none;labelBorderColor=none;sketch=1;fillStyle=solid;fontSize=15;fontColor=#FFFFFF;strokeColor=#1A1A1A;fillColor=#36BCFF;html=0;" parent="4n0d5DJK6220EFRmUgS7-1" vertex="1">
          <mxGeometry x="905" y="552" width="460" height="40" as="geometry" />
        </mxCell>
        <mxCell id="02JnvlSmlGlPBERRK4Ya-149" value="" style="shape=tableRow;horizontal=0;startSize=0;swimlaneHead=0;swimlaneBody=0;top=0;left=0;bottom=0;right=0;collapsible=0;dropTarget=0;fillColor=none;points=[[0,0.5],[1,0.5]];portConstraint=eastwest;shadow=1;glass=0;labelBackgroundColor=none;labelBorderColor=none;sketch=1;fillStyle=solid;fontSize=15;fontColor=#FFFFFF;strokeColor=#1A1A1A;html=0;" parent="02JnvlSmlGlPBERRK4Ya-148" vertex="1">
          <mxGeometry width="460" height="40" as="geometry" />
        </mxCell>
        <mxCell id="02JnvlSmlGlPBERRK4Ya-150" value="" style="shape=partialRectangle;html=1;whiteSpace=wrap;connectable=0;overflow=hidden;fillColor=none;top=0;left=0;bottom=0;right=0;pointerEvents=1;shadow=1;glass=0;labelBackgroundColor=none;labelBorderColor=none;sketch=1;fillStyle=solid;fontSize=15;fontColor=#FFFFFF;strokeColor=#1A1A1A;" parent="02JnvlSmlGlPBERRK4Ya-149" vertex="1">
          <mxGeometry width="38" height="40" as="geometry">
            <mxRectangle width="38" height="40" as="alternateBounds" />
          </mxGeometry>
        </mxCell>
        <mxCell id="02JnvlSmlGlPBERRK4Ya-151" value="" style="shape=partialRectangle;html=1;whiteSpace=wrap;connectable=0;overflow=hidden;fillColor=none;top=0;left=0;bottom=0;right=0;pointerEvents=1;shadow=1;glass=0;labelBackgroundColor=none;labelBorderColor=none;sketch=1;fillStyle=solid;fontSize=15;fontColor=#FFFFFF;strokeColor=#1A1A1A;" parent="02JnvlSmlGlPBERRK4Ya-149" vertex="1">
          <mxGeometry x="38" width="39" height="40" as="geometry">
            <mxRectangle width="39" height="40" as="alternateBounds" />
          </mxGeometry>
        </mxCell>
        <mxCell id="02JnvlSmlGlPBERRK4Ya-152" value="" style="shape=partialRectangle;html=1;whiteSpace=wrap;connectable=0;overflow=hidden;fillColor=none;top=0;left=0;bottom=0;right=0;pointerEvents=1;shadow=1;glass=0;labelBackgroundColor=none;labelBorderColor=none;sketch=1;fillStyle=solid;fontSize=15;fontColor=#FFFFFF;strokeColor=#1A1A1A;" parent="02JnvlSmlGlPBERRK4Ya-149" vertex="1">
          <mxGeometry x="77" width="38" height="40" as="geometry">
            <mxRectangle width="38" height="40" as="alternateBounds" />
          </mxGeometry>
        </mxCell>
        <mxCell id="02JnvlSmlGlPBERRK4Ya-153" value="" style="shape=partialRectangle;html=1;whiteSpace=wrap;connectable=0;overflow=hidden;fillColor=none;top=0;left=0;bottom=0;right=0;pointerEvents=1;shadow=1;glass=0;labelBackgroundColor=none;labelBorderColor=none;sketch=1;fillStyle=solid;fontSize=15;fontColor=#FFFFFF;strokeColor=#1A1A1A;" parent="02JnvlSmlGlPBERRK4Ya-149" vertex="1">
          <mxGeometry x="115" width="38" height="40" as="geometry">
            <mxRectangle width="38" height="40" as="alternateBounds" />
          </mxGeometry>
        </mxCell>
        <mxCell id="02JnvlSmlGlPBERRK4Ya-154" value="" style="shape=partialRectangle;html=1;whiteSpace=wrap;connectable=0;overflow=hidden;fillColor=none;top=0;left=0;bottom=0;right=0;pointerEvents=1;shadow=1;glass=0;labelBackgroundColor=none;labelBorderColor=none;sketch=1;fillStyle=solid;fontSize=15;fontColor=#FFFFFF;strokeColor=#1A1A1A;" parent="02JnvlSmlGlPBERRK4Ya-149" vertex="1">
          <mxGeometry x="153" width="57" height="40" as="geometry">
            <mxRectangle width="57" height="40" as="alternateBounds" />
          </mxGeometry>
        </mxCell>
        <mxCell id="02JnvlSmlGlPBERRK4Ya-155" value="" style="shape=partialRectangle;html=1;whiteSpace=wrap;connectable=0;overflow=hidden;fillColor=none;top=0;left=0;bottom=0;right=0;pointerEvents=1;shadow=1;glass=0;labelBackgroundColor=none;labelBorderColor=none;sketch=1;fillStyle=solid;fontSize=15;fontColor=#FFFFFF;strokeColor=#1A1A1A;" parent="02JnvlSmlGlPBERRK4Ya-149" vertex="1">
          <mxGeometry x="210" width="20" height="40" as="geometry">
            <mxRectangle width="20" height="40" as="alternateBounds" />
          </mxGeometry>
        </mxCell>
        <mxCell id="02JnvlSmlGlPBERRK4Ya-156" value="" style="shape=partialRectangle;html=1;whiteSpace=wrap;connectable=0;overflow=hidden;fillColor=none;top=0;left=0;bottom=0;right=0;pointerEvents=1;shadow=1;glass=0;labelBackgroundColor=none;labelBorderColor=none;sketch=1;fillStyle=solid;fontSize=15;fontColor=#FFFFFF;strokeColor=#1A1A1A;" parent="02JnvlSmlGlPBERRK4Ya-149" vertex="1">
          <mxGeometry x="230" width="38" height="40" as="geometry">
            <mxRectangle width="38" height="40" as="alternateBounds" />
          </mxGeometry>
        </mxCell>
        <mxCell id="02JnvlSmlGlPBERRK4Ya-157" value="" style="shape=partialRectangle;html=1;whiteSpace=wrap;connectable=0;overflow=hidden;fillColor=none;top=0;left=0;bottom=0;right=0;pointerEvents=1;shadow=1;glass=0;labelBackgroundColor=none;labelBorderColor=none;sketch=1;fillStyle=solid;fontSize=15;fontColor=#FFFFFF;strokeColor=#1A1A1A;" parent="02JnvlSmlGlPBERRK4Ya-149" vertex="1">
          <mxGeometry x="268" width="39" height="40" as="geometry">
            <mxRectangle width="39" height="40" as="alternateBounds" />
          </mxGeometry>
        </mxCell>
        <mxCell id="02JnvlSmlGlPBERRK4Ya-158" value="" style="shape=partialRectangle;html=1;whiteSpace=wrap;connectable=0;overflow=hidden;fillColor=none;top=0;left=0;bottom=0;right=0;pointerEvents=1;shadow=1;glass=0;labelBackgroundColor=none;labelBorderColor=none;sketch=1;fillStyle=solid;fontSize=15;fontColor=#FFFFFF;strokeColor=#1A1A1A;" parent="02JnvlSmlGlPBERRK4Ya-149" vertex="1">
          <mxGeometry x="307" width="38" height="40" as="geometry">
            <mxRectangle width="38" height="40" as="alternateBounds" />
          </mxGeometry>
        </mxCell>
        <mxCell id="02JnvlSmlGlPBERRK4Ya-159" value="" style="shape=partialRectangle;html=1;whiteSpace=wrap;connectable=0;overflow=hidden;fillColor=none;top=0;left=0;bottom=0;right=0;pointerEvents=1;shadow=1;glass=0;labelBackgroundColor=none;labelBorderColor=none;sketch=1;fillStyle=solid;fontSize=15;fontColor=#FFFFFF;strokeColor=#1A1A1A;" parent="02JnvlSmlGlPBERRK4Ya-149" vertex="1">
          <mxGeometry x="345" width="38" height="40" as="geometry">
            <mxRectangle width="38" height="40" as="alternateBounds" />
          </mxGeometry>
        </mxCell>
        <mxCell id="02JnvlSmlGlPBERRK4Ya-160" value="&lt;span style=&quot;background-color: rgb(5 , 155 , 255)&quot;&gt;Edit&lt;/span&gt;" style="shape=partialRectangle;html=1;whiteSpace=wrap;connectable=0;overflow=hidden;fillColor=none;top=0;left=0;bottom=0;right=0;pointerEvents=1;shadow=1;glass=0;labelBackgroundColor=none;labelBorderColor=none;sketch=1;fillStyle=solid;fontSize=15;fontColor=#FFFFFF;strokeColor=#1A1A1A;" parent="02JnvlSmlGlPBERRK4Ya-149" vertex="1">
          <mxGeometry x="383" width="39" height="40" as="geometry">
            <mxRectangle width="39" height="40" as="alternateBounds" />
          </mxGeometry>
        </mxCell>
        <mxCell id="02JnvlSmlGlPBERRK4Ya-161" value="&lt;font style=&quot;font-size: 9px ; background-color: rgb(255 , 8 , 8)&quot;&gt;Delete&lt;/font&gt;" style="shape=partialRectangle;html=1;whiteSpace=wrap;connectable=0;overflow=hidden;fillColor=none;top=0;left=0;bottom=0;right=0;pointerEvents=1;shadow=1;glass=0;labelBackgroundColor=none;labelBorderColor=none;sketch=1;fillStyle=solid;fontSize=15;fontColor=#FFFFFF;strokeColor=#1A1A1A;" parent="02JnvlSmlGlPBERRK4Ya-149" vertex="1">
          <mxGeometry x="422" width="38" height="40" as="geometry">
            <mxRectangle width="38" height="40" as="alternateBounds" />
          </mxGeometry>
        </mxCell>
        <mxCell id="02JnvlSmlGlPBERRK4Ya-162" value="All of the claims report fields....." style="text;html=1;align=center;verticalAlign=middle;resizable=0;points=[];autosize=1;strokeColor=none;fillColor=none;fontSize=15;fontColor=#FFFFFF;" parent="4n0d5DJK6220EFRmUgS7-1" vertex="1">
          <mxGeometry x="1035" y="562" width="220" height="20" as="geometry" />
        </mxCell>
        <mxCell id="02JnvlSmlGlPBERRK4Ya-163" value="" style="shape=table;startSize=0;container=1;collapsible=0;childLayout=tableLayout;shadow=1;glass=0;labelBackgroundColor=none;labelBorderColor=none;sketch=1;fillStyle=solid;fontSize=15;fontColor=#FFFFFF;strokeColor=#1A1A1A;fillColor=#36BCFF;html=0;" parent="4n0d5DJK6220EFRmUgS7-1" vertex="1">
          <mxGeometry x="905" y="598" width="460" height="40" as="geometry" />
        </mxCell>
        <mxCell id="02JnvlSmlGlPBERRK4Ya-164" value="" style="shape=tableRow;horizontal=0;startSize=0;swimlaneHead=0;swimlaneBody=0;top=0;left=0;bottom=0;right=0;collapsible=0;dropTarget=0;fillColor=none;points=[[0,0.5],[1,0.5]];portConstraint=eastwest;shadow=1;glass=0;labelBackgroundColor=none;labelBorderColor=none;sketch=1;fillStyle=solid;fontSize=15;fontColor=#FFFFFF;strokeColor=#1A1A1A;html=0;" parent="02JnvlSmlGlPBERRK4Ya-163" vertex="1">
          <mxGeometry width="460" height="40" as="geometry" />
        </mxCell>
        <mxCell id="02JnvlSmlGlPBERRK4Ya-165" value="" style="shape=partialRectangle;html=1;whiteSpace=wrap;connectable=0;overflow=hidden;fillColor=none;top=0;left=0;bottom=0;right=0;pointerEvents=1;shadow=1;glass=0;labelBackgroundColor=none;labelBorderColor=none;sketch=1;fillStyle=solid;fontSize=15;fontColor=#FFFFFF;strokeColor=#1A1A1A;" parent="02JnvlSmlGlPBERRK4Ya-164" vertex="1">
          <mxGeometry width="38" height="40" as="geometry">
            <mxRectangle width="38" height="40" as="alternateBounds" />
          </mxGeometry>
        </mxCell>
        <mxCell id="02JnvlSmlGlPBERRK4Ya-166" value="" style="shape=partialRectangle;html=1;whiteSpace=wrap;connectable=0;overflow=hidden;fillColor=none;top=0;left=0;bottom=0;right=0;pointerEvents=1;shadow=1;glass=0;labelBackgroundColor=none;labelBorderColor=none;sketch=1;fillStyle=solid;fontSize=15;fontColor=#FFFFFF;strokeColor=#1A1A1A;" parent="02JnvlSmlGlPBERRK4Ya-164" vertex="1">
          <mxGeometry x="38" width="39" height="40" as="geometry">
            <mxRectangle width="39" height="40" as="alternateBounds" />
          </mxGeometry>
        </mxCell>
        <mxCell id="02JnvlSmlGlPBERRK4Ya-167" value="" style="shape=partialRectangle;html=1;whiteSpace=wrap;connectable=0;overflow=hidden;fillColor=none;top=0;left=0;bottom=0;right=0;pointerEvents=1;shadow=1;glass=0;labelBackgroundColor=none;labelBorderColor=none;sketch=1;fillStyle=solid;fontSize=15;fontColor=#FFFFFF;strokeColor=#1A1A1A;" parent="02JnvlSmlGlPBERRK4Ya-164" vertex="1">
          <mxGeometry x="77" width="38" height="40" as="geometry">
            <mxRectangle width="38" height="40" as="alternateBounds" />
          </mxGeometry>
        </mxCell>
        <mxCell id="02JnvlSmlGlPBERRK4Ya-168" value="" style="shape=partialRectangle;html=1;whiteSpace=wrap;connectable=0;overflow=hidden;fillColor=none;top=0;left=0;bottom=0;right=0;pointerEvents=1;shadow=1;glass=0;labelBackgroundColor=none;labelBorderColor=none;sketch=1;fillStyle=solid;fontSize=15;fontColor=#FFFFFF;strokeColor=#1A1A1A;" parent="02JnvlSmlGlPBERRK4Ya-164" vertex="1">
          <mxGeometry x="115" width="38" height="40" as="geometry">
            <mxRectangle width="38" height="40" as="alternateBounds" />
          </mxGeometry>
        </mxCell>
        <mxCell id="02JnvlSmlGlPBERRK4Ya-169" value="" style="shape=partialRectangle;html=1;whiteSpace=wrap;connectable=0;overflow=hidden;fillColor=none;top=0;left=0;bottom=0;right=0;pointerEvents=1;shadow=1;glass=0;labelBackgroundColor=none;labelBorderColor=none;sketch=1;fillStyle=solid;fontSize=15;fontColor=#FFFFFF;strokeColor=#1A1A1A;" parent="02JnvlSmlGlPBERRK4Ya-164" vertex="1">
          <mxGeometry x="153" width="57" height="40" as="geometry">
            <mxRectangle width="57" height="40" as="alternateBounds" />
          </mxGeometry>
        </mxCell>
        <mxCell id="02JnvlSmlGlPBERRK4Ya-170" value="" style="shape=partialRectangle;html=1;whiteSpace=wrap;connectable=0;overflow=hidden;fillColor=none;top=0;left=0;bottom=0;right=0;pointerEvents=1;shadow=1;glass=0;labelBackgroundColor=none;labelBorderColor=none;sketch=1;fillStyle=solid;fontSize=15;fontColor=#FFFFFF;strokeColor=#1A1A1A;" parent="02JnvlSmlGlPBERRK4Ya-164" vertex="1">
          <mxGeometry x="210" width="20" height="40" as="geometry">
            <mxRectangle width="20" height="40" as="alternateBounds" />
          </mxGeometry>
        </mxCell>
        <mxCell id="02JnvlSmlGlPBERRK4Ya-171" value="" style="shape=partialRectangle;html=1;whiteSpace=wrap;connectable=0;overflow=hidden;fillColor=none;top=0;left=0;bottom=0;right=0;pointerEvents=1;shadow=1;glass=0;labelBackgroundColor=none;labelBorderColor=none;sketch=1;fillStyle=solid;fontSize=15;fontColor=#FFFFFF;strokeColor=#1A1A1A;" parent="02JnvlSmlGlPBERRK4Ya-164" vertex="1">
          <mxGeometry x="230" width="38" height="40" as="geometry">
            <mxRectangle width="38" height="40" as="alternateBounds" />
          </mxGeometry>
        </mxCell>
        <mxCell id="02JnvlSmlGlPBERRK4Ya-172" value="" style="shape=partialRectangle;html=1;whiteSpace=wrap;connectable=0;overflow=hidden;fillColor=none;top=0;left=0;bottom=0;right=0;pointerEvents=1;shadow=1;glass=0;labelBackgroundColor=none;labelBorderColor=none;sketch=1;fillStyle=solid;fontSize=15;fontColor=#FFFFFF;strokeColor=#1A1A1A;" parent="02JnvlSmlGlPBERRK4Ya-164" vertex="1">
          <mxGeometry x="268" width="39" height="40" as="geometry">
            <mxRectangle width="39" height="40" as="alternateBounds" />
          </mxGeometry>
        </mxCell>
        <mxCell id="02JnvlSmlGlPBERRK4Ya-173" value="" style="shape=partialRectangle;html=1;whiteSpace=wrap;connectable=0;overflow=hidden;fillColor=none;top=0;left=0;bottom=0;right=0;pointerEvents=1;shadow=1;glass=0;labelBackgroundColor=none;labelBorderColor=none;sketch=1;fillStyle=solid;fontSize=15;fontColor=#FFFFFF;strokeColor=#1A1A1A;" parent="02JnvlSmlGlPBERRK4Ya-164" vertex="1">
          <mxGeometry x="307" width="38" height="40" as="geometry">
            <mxRectangle width="38" height="40" as="alternateBounds" />
          </mxGeometry>
        </mxCell>
        <mxCell id="02JnvlSmlGlPBERRK4Ya-174" value="" style="shape=partialRectangle;html=1;whiteSpace=wrap;connectable=0;overflow=hidden;fillColor=none;top=0;left=0;bottom=0;right=0;pointerEvents=1;shadow=1;glass=0;labelBackgroundColor=none;labelBorderColor=none;sketch=1;fillStyle=solid;fontSize=15;fontColor=#FFFFFF;strokeColor=#1A1A1A;" parent="02JnvlSmlGlPBERRK4Ya-164" vertex="1">
          <mxGeometry x="345" width="38" height="40" as="geometry">
            <mxRectangle width="38" height="40" as="alternateBounds" />
          </mxGeometry>
        </mxCell>
        <mxCell id="02JnvlSmlGlPBERRK4Ya-175" value="&lt;span style=&quot;background-color: rgb(5 , 155 , 255)&quot;&gt;Edit&lt;/span&gt;" style="shape=partialRectangle;html=1;whiteSpace=wrap;connectable=0;overflow=hidden;fillColor=none;top=0;left=0;bottom=0;right=0;pointerEvents=1;shadow=1;glass=0;labelBackgroundColor=none;labelBorderColor=none;sketch=1;fillStyle=solid;fontSize=15;fontColor=#FFFFFF;strokeColor=#1A1A1A;" parent="02JnvlSmlGlPBERRK4Ya-164" vertex="1">
          <mxGeometry x="383" width="39" height="40" as="geometry">
            <mxRectangle width="39" height="40" as="alternateBounds" />
          </mxGeometry>
        </mxCell>
        <mxCell id="02JnvlSmlGlPBERRK4Ya-176" value="&lt;font style=&quot;font-size: 9px ; background-color: rgb(255 , 8 , 8)&quot;&gt;Delete&lt;/font&gt;" style="shape=partialRectangle;html=1;whiteSpace=wrap;connectable=0;overflow=hidden;fillColor=none;top=0;left=0;bottom=0;right=0;pointerEvents=1;shadow=1;glass=0;labelBackgroundColor=none;labelBorderColor=none;sketch=1;fillStyle=solid;fontSize=15;fontColor=#FFFFFF;strokeColor=#1A1A1A;" parent="02JnvlSmlGlPBERRK4Ya-164" vertex="1">
          <mxGeometry x="422" width="38" height="40" as="geometry">
            <mxRectangle width="38" height="40" as="alternateBounds" />
          </mxGeometry>
        </mxCell>
        <mxCell id="02JnvlSmlGlPBERRK4Ya-177" value="All of the claims report fields....." style="text;html=1;align=center;verticalAlign=middle;resizable=0;points=[];autosize=1;strokeColor=none;fillColor=none;fontSize=15;fontColor=#FFFFFF;" parent="4n0d5DJK6220EFRmUgS7-1" vertex="1">
          <mxGeometry x="1035" y="608" width="220" height="20" as="geometry" />
        </mxCell>
        <mxCell id="02JnvlSmlGlPBERRK4Ya-178" value="" style="shape=table;startSize=0;container=1;collapsible=0;childLayout=tableLayout;shadow=1;glass=0;labelBackgroundColor=none;labelBorderColor=none;sketch=1;fillStyle=solid;fontSize=15;fontColor=#FFFFFF;strokeColor=#1A1A1A;fillColor=#36BCFF;html=0;" parent="4n0d5DJK6220EFRmUgS7-1" vertex="1">
          <mxGeometry x="905" y="650" width="460" height="40" as="geometry" />
        </mxCell>
        <mxCell id="02JnvlSmlGlPBERRK4Ya-179" value="" style="shape=tableRow;horizontal=0;startSize=0;swimlaneHead=0;swimlaneBody=0;top=0;left=0;bottom=0;right=0;collapsible=0;dropTarget=0;fillColor=none;points=[[0,0.5],[1,0.5]];portConstraint=eastwest;shadow=1;glass=0;labelBackgroundColor=none;labelBorderColor=none;sketch=1;fillStyle=solid;fontSize=15;fontColor=#FFFFFF;strokeColor=#1A1A1A;html=0;" parent="02JnvlSmlGlPBERRK4Ya-178" vertex="1">
          <mxGeometry width="460" height="40" as="geometry" />
        </mxCell>
        <mxCell id="02JnvlSmlGlPBERRK4Ya-180" value="" style="shape=partialRectangle;html=1;whiteSpace=wrap;connectable=0;overflow=hidden;fillColor=none;top=0;left=0;bottom=0;right=0;pointerEvents=1;shadow=1;glass=0;labelBackgroundColor=none;labelBorderColor=none;sketch=1;fillStyle=solid;fontSize=15;fontColor=#FFFFFF;strokeColor=#1A1A1A;" parent="02JnvlSmlGlPBERRK4Ya-179" vertex="1">
          <mxGeometry width="38" height="40" as="geometry">
            <mxRectangle width="38" height="40" as="alternateBounds" />
          </mxGeometry>
        </mxCell>
        <mxCell id="02JnvlSmlGlPBERRK4Ya-181" value="" style="shape=partialRectangle;html=1;whiteSpace=wrap;connectable=0;overflow=hidden;fillColor=none;top=0;left=0;bottom=0;right=0;pointerEvents=1;shadow=1;glass=0;labelBackgroundColor=none;labelBorderColor=none;sketch=1;fillStyle=solid;fontSize=15;fontColor=#FFFFFF;strokeColor=#1A1A1A;" parent="02JnvlSmlGlPBERRK4Ya-179" vertex="1">
          <mxGeometry x="38" width="39" height="40" as="geometry">
            <mxRectangle width="39" height="40" as="alternateBounds" />
          </mxGeometry>
        </mxCell>
        <mxCell id="02JnvlSmlGlPBERRK4Ya-182" value="" style="shape=partialRectangle;html=1;whiteSpace=wrap;connectable=0;overflow=hidden;fillColor=none;top=0;left=0;bottom=0;right=0;pointerEvents=1;shadow=1;glass=0;labelBackgroundColor=none;labelBorderColor=none;sketch=1;fillStyle=solid;fontSize=15;fontColor=#FFFFFF;strokeColor=#1A1A1A;" parent="02JnvlSmlGlPBERRK4Ya-179" vertex="1">
          <mxGeometry x="77" width="38" height="40" as="geometry">
            <mxRectangle width="38" height="40" as="alternateBounds" />
          </mxGeometry>
        </mxCell>
        <mxCell id="02JnvlSmlGlPBERRK4Ya-183" value="" style="shape=partialRectangle;html=1;whiteSpace=wrap;connectable=0;overflow=hidden;fillColor=none;top=0;left=0;bottom=0;right=0;pointerEvents=1;shadow=1;glass=0;labelBackgroundColor=none;labelBorderColor=none;sketch=1;fillStyle=solid;fontSize=15;fontColor=#FFFFFF;strokeColor=#1A1A1A;" parent="02JnvlSmlGlPBERRK4Ya-179" vertex="1">
          <mxGeometry x="115" width="38" height="40" as="geometry">
            <mxRectangle width="38" height="40" as="alternateBounds" />
          </mxGeometry>
        </mxCell>
        <mxCell id="02JnvlSmlGlPBERRK4Ya-184" value="" style="shape=partialRectangle;html=1;whiteSpace=wrap;connectable=0;overflow=hidden;fillColor=none;top=0;left=0;bottom=0;right=0;pointerEvents=1;shadow=1;glass=0;labelBackgroundColor=none;labelBorderColor=none;sketch=1;fillStyle=solid;fontSize=15;fontColor=#FFFFFF;strokeColor=#1A1A1A;" parent="02JnvlSmlGlPBERRK4Ya-179" vertex="1">
          <mxGeometry x="153" width="57" height="40" as="geometry">
            <mxRectangle width="57" height="40" as="alternateBounds" />
          </mxGeometry>
        </mxCell>
        <mxCell id="02JnvlSmlGlPBERRK4Ya-185" value="" style="shape=partialRectangle;html=1;whiteSpace=wrap;connectable=0;overflow=hidden;fillColor=none;top=0;left=0;bottom=0;right=0;pointerEvents=1;shadow=1;glass=0;labelBackgroundColor=none;labelBorderColor=none;sketch=1;fillStyle=solid;fontSize=15;fontColor=#FFFFFF;strokeColor=#1A1A1A;" parent="02JnvlSmlGlPBERRK4Ya-179" vertex="1">
          <mxGeometry x="210" width="20" height="40" as="geometry">
            <mxRectangle width="20" height="40" as="alternateBounds" />
          </mxGeometry>
        </mxCell>
        <mxCell id="02JnvlSmlGlPBERRK4Ya-186" value="" style="shape=partialRectangle;html=1;whiteSpace=wrap;connectable=0;overflow=hidden;fillColor=none;top=0;left=0;bottom=0;right=0;pointerEvents=1;shadow=1;glass=0;labelBackgroundColor=none;labelBorderColor=none;sketch=1;fillStyle=solid;fontSize=15;fontColor=#FFFFFF;strokeColor=#1A1A1A;" parent="02JnvlSmlGlPBERRK4Ya-179" vertex="1">
          <mxGeometry x="230" width="38" height="40" as="geometry">
            <mxRectangle width="38" height="40" as="alternateBounds" />
          </mxGeometry>
        </mxCell>
        <mxCell id="02JnvlSmlGlPBERRK4Ya-187" value="" style="shape=partialRectangle;html=1;whiteSpace=wrap;connectable=0;overflow=hidden;fillColor=none;top=0;left=0;bottom=0;right=0;pointerEvents=1;shadow=1;glass=0;labelBackgroundColor=none;labelBorderColor=none;sketch=1;fillStyle=solid;fontSize=15;fontColor=#FFFFFF;strokeColor=#1A1A1A;" parent="02JnvlSmlGlPBERRK4Ya-179" vertex="1">
          <mxGeometry x="268" width="39" height="40" as="geometry">
            <mxRectangle width="39" height="40" as="alternateBounds" />
          </mxGeometry>
        </mxCell>
        <mxCell id="02JnvlSmlGlPBERRK4Ya-188" value="" style="shape=partialRectangle;html=1;whiteSpace=wrap;connectable=0;overflow=hidden;fillColor=none;top=0;left=0;bottom=0;right=0;pointerEvents=1;shadow=1;glass=0;labelBackgroundColor=none;labelBorderColor=none;sketch=1;fillStyle=solid;fontSize=15;fontColor=#FFFFFF;strokeColor=#1A1A1A;" parent="02JnvlSmlGlPBERRK4Ya-179" vertex="1">
          <mxGeometry x="307" width="38" height="40" as="geometry">
            <mxRectangle width="38" height="40" as="alternateBounds" />
          </mxGeometry>
        </mxCell>
        <mxCell id="02JnvlSmlGlPBERRK4Ya-189" value="" style="shape=partialRectangle;html=1;whiteSpace=wrap;connectable=0;overflow=hidden;fillColor=none;top=0;left=0;bottom=0;right=0;pointerEvents=1;shadow=1;glass=0;labelBackgroundColor=none;labelBorderColor=none;sketch=1;fillStyle=solid;fontSize=15;fontColor=#FFFFFF;strokeColor=#1A1A1A;" parent="02JnvlSmlGlPBERRK4Ya-179" vertex="1">
          <mxGeometry x="345" width="38" height="40" as="geometry">
            <mxRectangle width="38" height="40" as="alternateBounds" />
          </mxGeometry>
        </mxCell>
        <mxCell id="02JnvlSmlGlPBERRK4Ya-190" value="&lt;span style=&quot;background-color: rgb(5 , 155 , 255)&quot;&gt;Edit&lt;/span&gt;" style="shape=partialRectangle;html=1;whiteSpace=wrap;connectable=0;overflow=hidden;fillColor=none;top=0;left=0;bottom=0;right=0;pointerEvents=1;shadow=1;glass=0;labelBackgroundColor=none;labelBorderColor=none;sketch=1;fillStyle=solid;fontSize=15;fontColor=#FFFFFF;strokeColor=#1A1A1A;" parent="02JnvlSmlGlPBERRK4Ya-179" vertex="1">
          <mxGeometry x="383" width="39" height="40" as="geometry">
            <mxRectangle width="39" height="40" as="alternateBounds" />
          </mxGeometry>
        </mxCell>
        <mxCell id="02JnvlSmlGlPBERRK4Ya-191" value="&lt;font style=&quot;font-size: 9px ; background-color: rgb(255 , 8 , 8)&quot;&gt;Delete&lt;/font&gt;" style="shape=partialRectangle;html=1;whiteSpace=wrap;connectable=0;overflow=hidden;fillColor=none;top=0;left=0;bottom=0;right=0;pointerEvents=1;shadow=1;glass=0;labelBackgroundColor=none;labelBorderColor=none;sketch=1;fillStyle=solid;fontSize=15;fontColor=#FFFFFF;strokeColor=#1A1A1A;" parent="02JnvlSmlGlPBERRK4Ya-179" vertex="1">
          <mxGeometry x="422" width="38" height="40" as="geometry">
            <mxRectangle width="38" height="40" as="alternateBounds" />
          </mxGeometry>
        </mxCell>
        <mxCell id="02JnvlSmlGlPBERRK4Ya-192" value="All of the claims report fields....." style="text;html=1;align=center;verticalAlign=middle;resizable=0;points=[];autosize=1;strokeColor=none;fillColor=none;fontSize=15;fontColor=#FFFFFF;" parent="4n0d5DJK6220EFRmUgS7-1" vertex="1">
          <mxGeometry x="1035" y="660" width="220" height="20" as="geometry" />
        </mxCell>
        <mxCell id="02JnvlSmlGlPBERRK4Ya-193" value="" style="shape=ext;double=1;rounded=0;whiteSpace=wrap;html=1;shadow=1;glass=0;dashed=1;dashPattern=1 1;labelBackgroundColor=none;sketch=1;fontSize=15;strokeColor=#6c8ebf;fillColor=#dae8fc;" parent="4n0d5DJK6220EFRmUgS7-1" vertex="1">
          <mxGeometry x="-550" y="480" width="510" height="420" as="geometry" />
        </mxCell>
        <mxCell id="02JnvlSmlGlPBERRK4Ya-280" style="edgeStyle=none;rounded=0;orthogonalLoop=1;jettySize=auto;html=1;exitX=1;exitY=0.75;exitDx=0;exitDy=0;fontSize=9;fontColor=none;" parent="4n0d5DJK6220EFRmUgS7-1" source="02JnvlSmlGlPBERRK4Ya-208" target="02JnvlSmlGlPBERRK4Ya-5" edge="1">
          <mxGeometry relative="1" as="geometry" />
        </mxCell>
        <mxCell id="02JnvlSmlGlPBERRK4Ya-281" style="edgeStyle=none;rounded=0;orthogonalLoop=1;jettySize=auto;html=1;exitX=1;exitY=1;exitDx=0;exitDy=0;fontSize=9;fontColor=none;" parent="4n0d5DJK6220EFRmUgS7-1" source="02JnvlSmlGlPBERRK4Ya-208" target="02JnvlSmlGlPBERRK4Ya-9" edge="1">
          <mxGeometry relative="1" as="geometry" />
        </mxCell>
        <mxCell id="02JnvlSmlGlPBERRK4Ya-282" style="edgeStyle=none;rounded=0;orthogonalLoop=1;jettySize=auto;html=1;exitX=1;exitY=0.25;exitDx=0;exitDy=0;fontSize=9;fontColor=none;" parent="4n0d5DJK6220EFRmUgS7-1" source="02JnvlSmlGlPBERRK4Ya-208" target="02JnvlSmlGlPBERRK4Ya-12" edge="1">
          <mxGeometry relative="1" as="geometry" />
        </mxCell>
        <mxCell id="02JnvlSmlGlPBERRK4Ya-283" style="edgeStyle=none;rounded=0;orthogonalLoop=1;jettySize=auto;html=1;exitX=1;exitY=0.75;exitDx=0;exitDy=0;fontSize=9;fontColor=none;" parent="4n0d5DJK6220EFRmUgS7-1" source="02JnvlSmlGlPBERRK4Ya-208" target="02JnvlSmlGlPBERRK4Ya-13" edge="1">
          <mxGeometry relative="1" as="geometry" />
        </mxCell>
        <mxCell id="02JnvlSmlGlPBERRK4Ya-314" style="edgeStyle=none;rounded=0;orthogonalLoop=1;jettySize=auto;html=1;exitX=1;exitY=0.5;exitDx=0;exitDy=0;fontSize=9;fontColor=none;" parent="4n0d5DJK6220EFRmUgS7-1" source="02JnvlSmlGlPBERRK4Ya-208" target="02JnvlSmlGlPBERRK4Ya-54" edge="1">
          <mxGeometry relative="1" as="geometry" />
        </mxCell>
        <mxCell id="02JnvlSmlGlPBERRK4Ya-208" value="List *" style="shape=ext;double=1;rounded=0;whiteSpace=wrap;html=1;shadow=1;glass=0;dashed=1;dashPattern=1 1;labelBackgroundColor=none;sketch=1;fontSize=15;fontColor=#454545;strokeColor=#1A1A1A;fillColor=none;" parent="4n0d5DJK6220EFRmUgS7-1" vertex="1">
          <mxGeometry x="-550" y="480" width="510" height="40" as="geometry" />
        </mxCell>
        <mxCell id="02JnvlSmlGlPBERRK4Ya-210" value="&lt;font color=&quot;#121212&quot;&gt;...............&lt;/font&gt;" style="text;html=1;align=center;verticalAlign=middle;resizable=0;points=[];autosize=1;strokeColor=none;fillColor=none;fontSize=15;fontColor=#FFFFFF;" parent="4n0d5DJK6220EFRmUgS7-1" vertex="1">
          <mxGeometry x="-340" y="840" width="80" height="20" as="geometry" />
        </mxCell>
        <mxCell id="02JnvlSmlGlPBERRK4Ya-256" value="" style="shape=table;startSize=0;container=1;collapsible=0;childLayout=tableLayout;shadow=1;glass=0;labelBackgroundColor=none;labelBorderColor=none;sketch=1;fillStyle=solid;fontSize=9;fontColor=#121212;strokeColor=#1A1A1A;fillColor=#36BCFF;html=0;" parent="4n0d5DJK6220EFRmUgS7-1" vertex="1">
          <mxGeometry x="-520" y="590" width="455" height="40" as="geometry" />
        </mxCell>
        <mxCell id="02JnvlSmlGlPBERRK4Ya-257" value="" style="shape=tableRow;horizontal=0;startSize=0;swimlaneHead=0;swimlaneBody=0;top=0;left=0;bottom=0;right=0;collapsible=0;dropTarget=0;fillColor=none;points=[[0,0.5],[1,0.5]];portConstraint=eastwest;shadow=1;glass=0;labelBackgroundColor=#FF0808;labelBorderColor=none;sketch=1;fillStyle=solid;fontSize=9;fontColor=#121212;strokeColor=#1A1A1A;html=0;" parent="02JnvlSmlGlPBERRK4Ya-256" vertex="1">
          <mxGeometry width="455" height="40" as="geometry" />
        </mxCell>
        <mxCell id="02JnvlSmlGlPBERRK4Ya-258" value="Count" style="shape=partialRectangle;html=1;whiteSpace=wrap;connectable=0;overflow=hidden;fillColor=none;top=0;left=0;bottom=0;right=0;pointerEvents=1;shadow=1;glass=0;labelBackgroundColor=none;labelBorderColor=none;sketch=1;fillStyle=solid;fontSize=9;fontColor=#121212;strokeColor=#1A1A1A;" parent="02JnvlSmlGlPBERRK4Ya-257" vertex="1">
          <mxGeometry width="114" height="40" as="geometry">
            <mxRectangle width="114" height="40" as="alternateBounds" />
          </mxGeometry>
        </mxCell>
        <mxCell id="02JnvlSmlGlPBERRK4Ya-259" value="Number" style="shape=partialRectangle;html=1;whiteSpace=wrap;connectable=0;overflow=hidden;fillColor=none;top=0;left=0;bottom=0;right=0;pointerEvents=1;shadow=1;glass=0;labelBackgroundColor=none;labelBorderColor=none;sketch=1;fillStyle=solid;fontSize=9;fontColor=#121212;strokeColor=#1A1A1A;" parent="02JnvlSmlGlPBERRK4Ya-257" vertex="1">
          <mxGeometry x="114" width="114" height="40" as="geometry">
            <mxRectangle width="114" height="40" as="alternateBounds" />
          </mxGeometry>
        </mxCell>
        <mxCell id="02JnvlSmlGlPBERRK4Ya-260" value="&lt;span style=&quot;background-color: rgb(5 , 138 , 255)&quot;&gt;Edit&lt;/span&gt;" style="shape=partialRectangle;html=1;whiteSpace=wrap;connectable=0;overflow=hidden;fillColor=none;top=0;left=0;bottom=0;right=0;pointerEvents=1;shadow=1;glass=0;labelBackgroundColor=#FF0808;labelBorderColor=none;sketch=1;fillStyle=solid;fontSize=9;fontColor=#121212;strokeColor=#1A1A1A;" parent="02JnvlSmlGlPBERRK4Ya-257" vertex="1">
          <mxGeometry x="228" width="113" height="40" as="geometry">
            <mxRectangle width="113" height="40" as="alternateBounds" />
          </mxGeometry>
        </mxCell>
        <mxCell id="02JnvlSmlGlPBERRK4Ya-261" value="Delete" style="shape=partialRectangle;html=1;whiteSpace=wrap;connectable=0;overflow=hidden;fillColor=none;top=0;left=0;bottom=0;right=0;pointerEvents=1;shadow=1;glass=0;labelBackgroundColor=#FF0808;labelBorderColor=none;sketch=1;fillStyle=solid;fontSize=9;fontColor=#121212;strokeColor=#1A1A1A;" parent="02JnvlSmlGlPBERRK4Ya-257" vertex="1">
          <mxGeometry x="341" width="114" height="40" as="geometry">
            <mxRectangle width="114" height="40" as="alternateBounds" />
          </mxGeometry>
        </mxCell>
        <mxCell id="02JnvlSmlGlPBERRK4Ya-262" value="" style="shape=table;startSize=0;container=1;collapsible=0;childLayout=tableLayout;shadow=1;glass=0;labelBackgroundColor=none;labelBorderColor=none;sketch=1;fillStyle=solid;fontSize=9;fontColor=#121212;strokeColor=#1A1A1A;fillColor=#36BCFF;html=0;" parent="4n0d5DJK6220EFRmUgS7-1" vertex="1">
          <mxGeometry x="-520" y="648" width="455" height="40" as="geometry" />
        </mxCell>
        <mxCell id="02JnvlSmlGlPBERRK4Ya-263" value="" style="shape=tableRow;horizontal=0;startSize=0;swimlaneHead=0;swimlaneBody=0;top=0;left=0;bottom=0;right=0;collapsible=0;dropTarget=0;fillColor=none;points=[[0,0.5],[1,0.5]];portConstraint=eastwest;shadow=1;glass=0;labelBackgroundColor=#FF0808;labelBorderColor=none;sketch=1;fillStyle=solid;fontSize=9;fontColor=#121212;strokeColor=#1A1A1A;html=0;" parent="02JnvlSmlGlPBERRK4Ya-262" vertex="1">
          <mxGeometry width="455" height="40" as="geometry" />
        </mxCell>
        <mxCell id="02JnvlSmlGlPBERRK4Ya-264" value="Count" style="shape=partialRectangle;html=1;whiteSpace=wrap;connectable=0;overflow=hidden;fillColor=none;top=0;left=0;bottom=0;right=0;pointerEvents=1;shadow=1;glass=0;labelBackgroundColor=none;labelBorderColor=none;sketch=1;fillStyle=solid;fontSize=9;fontColor=#121212;strokeColor=#1A1A1A;" parent="02JnvlSmlGlPBERRK4Ya-263" vertex="1">
          <mxGeometry width="114" height="40" as="geometry">
            <mxRectangle width="114" height="40" as="alternateBounds" />
          </mxGeometry>
        </mxCell>
        <mxCell id="02JnvlSmlGlPBERRK4Ya-265" value="Number" style="shape=partialRectangle;html=1;whiteSpace=wrap;connectable=0;overflow=hidden;fillColor=none;top=0;left=0;bottom=0;right=0;pointerEvents=1;shadow=1;glass=0;labelBackgroundColor=none;labelBorderColor=none;sketch=1;fillStyle=solid;fontSize=9;fontColor=#121212;strokeColor=#1A1A1A;" parent="02JnvlSmlGlPBERRK4Ya-263" vertex="1">
          <mxGeometry x="114" width="114" height="40" as="geometry">
            <mxRectangle width="114" height="40" as="alternateBounds" />
          </mxGeometry>
        </mxCell>
        <mxCell id="02JnvlSmlGlPBERRK4Ya-266" value="&lt;span style=&quot;background-color: rgb(5 , 138 , 255)&quot;&gt;Edit&lt;/span&gt;" style="shape=partialRectangle;html=1;whiteSpace=wrap;connectable=0;overflow=hidden;fillColor=none;top=0;left=0;bottom=0;right=0;pointerEvents=1;shadow=1;glass=0;labelBackgroundColor=#FF0808;labelBorderColor=none;sketch=1;fillStyle=solid;fontSize=9;fontColor=#121212;strokeColor=#1A1A1A;" parent="02JnvlSmlGlPBERRK4Ya-263" vertex="1">
          <mxGeometry x="228" width="113" height="40" as="geometry">
            <mxRectangle width="113" height="40" as="alternateBounds" />
          </mxGeometry>
        </mxCell>
        <mxCell id="02JnvlSmlGlPBERRK4Ya-267" value="Delete" style="shape=partialRectangle;html=1;whiteSpace=wrap;connectable=0;overflow=hidden;fillColor=none;top=0;left=0;bottom=0;right=0;pointerEvents=1;shadow=1;glass=0;labelBackgroundColor=#FF0808;labelBorderColor=none;sketch=1;fillStyle=solid;fontSize=9;fontColor=#121212;strokeColor=#1A1A1A;" parent="02JnvlSmlGlPBERRK4Ya-263" vertex="1">
          <mxGeometry x="341" width="114" height="40" as="geometry">
            <mxRectangle width="114" height="40" as="alternateBounds" />
          </mxGeometry>
        </mxCell>
        <mxCell id="02JnvlSmlGlPBERRK4Ya-268" value="" style="shape=table;startSize=0;container=1;collapsible=0;childLayout=tableLayout;shadow=1;glass=0;labelBackgroundColor=none;labelBorderColor=none;sketch=1;fillStyle=solid;fontSize=9;fontColor=#121212;strokeColor=#1A1A1A;fillColor=#36BCFF;html=0;" parent="4n0d5DJK6220EFRmUgS7-1" vertex="1">
          <mxGeometry x="-520" y="707" width="455" height="40" as="geometry" />
        </mxCell>
        <mxCell id="02JnvlSmlGlPBERRK4Ya-269" value="" style="shape=tableRow;horizontal=0;startSize=0;swimlaneHead=0;swimlaneBody=0;top=0;left=0;bottom=0;right=0;collapsible=0;dropTarget=0;fillColor=none;points=[[0,0.5],[1,0.5]];portConstraint=eastwest;shadow=1;glass=0;labelBackgroundColor=#FF0808;labelBorderColor=none;sketch=1;fillStyle=solid;fontSize=9;fontColor=#121212;strokeColor=#1A1A1A;html=0;" parent="02JnvlSmlGlPBERRK4Ya-268" vertex="1">
          <mxGeometry width="455" height="40" as="geometry" />
        </mxCell>
        <mxCell id="02JnvlSmlGlPBERRK4Ya-270" value="Count" style="shape=partialRectangle;html=1;whiteSpace=wrap;connectable=0;overflow=hidden;fillColor=none;top=0;left=0;bottom=0;right=0;pointerEvents=1;shadow=1;glass=0;labelBackgroundColor=none;labelBorderColor=none;sketch=1;fillStyle=solid;fontSize=9;fontColor=#121212;strokeColor=#1A1A1A;" parent="02JnvlSmlGlPBERRK4Ya-269" vertex="1">
          <mxGeometry width="114" height="40" as="geometry">
            <mxRectangle width="114" height="40" as="alternateBounds" />
          </mxGeometry>
        </mxCell>
        <mxCell id="02JnvlSmlGlPBERRK4Ya-271" value="Number" style="shape=partialRectangle;html=1;whiteSpace=wrap;connectable=0;overflow=hidden;fillColor=none;top=0;left=0;bottom=0;right=0;pointerEvents=1;shadow=1;glass=0;labelBackgroundColor=none;labelBorderColor=none;sketch=1;fillStyle=solid;fontSize=9;fontColor=#121212;strokeColor=#1A1A1A;" parent="02JnvlSmlGlPBERRK4Ya-269" vertex="1">
          <mxGeometry x="114" width="114" height="40" as="geometry">
            <mxRectangle width="114" height="40" as="alternateBounds" />
          </mxGeometry>
        </mxCell>
        <mxCell id="02JnvlSmlGlPBERRK4Ya-272" value="&lt;span style=&quot;background-color: rgb(5 , 138 , 255)&quot;&gt;Edit&lt;/span&gt;" style="shape=partialRectangle;html=1;whiteSpace=wrap;connectable=0;overflow=hidden;fillColor=none;top=0;left=0;bottom=0;right=0;pointerEvents=1;shadow=1;glass=0;labelBackgroundColor=#FF0808;labelBorderColor=none;sketch=1;fillStyle=solid;fontSize=9;fontColor=#121212;strokeColor=#1A1A1A;" parent="02JnvlSmlGlPBERRK4Ya-269" vertex="1">
          <mxGeometry x="228" width="113" height="40" as="geometry">
            <mxRectangle width="113" height="40" as="alternateBounds" />
          </mxGeometry>
        </mxCell>
        <mxCell id="02JnvlSmlGlPBERRK4Ya-273" value="Delete" style="shape=partialRectangle;html=1;whiteSpace=wrap;connectable=0;overflow=hidden;fillColor=none;top=0;left=0;bottom=0;right=0;pointerEvents=1;shadow=1;glass=0;labelBackgroundColor=#FF0808;labelBorderColor=none;sketch=1;fillStyle=solid;fontSize=9;fontColor=#121212;strokeColor=#1A1A1A;" parent="02JnvlSmlGlPBERRK4Ya-269" vertex="1">
          <mxGeometry x="341" width="114" height="40" as="geometry">
            <mxRectangle width="114" height="40" as="alternateBounds" />
          </mxGeometry>
        </mxCell>
        <mxCell id="02JnvlSmlGlPBERRK4Ya-274" value="" style="shape=table;startSize=0;container=1;collapsible=0;childLayout=tableLayout;shadow=1;glass=0;labelBackgroundColor=none;labelBorderColor=none;sketch=1;fillStyle=solid;fontSize=9;fontColor=#121212;strokeColor=#1A1A1A;fillColor=#36BCFF;html=0;" parent="4n0d5DJK6220EFRmUgS7-1" vertex="1">
          <mxGeometry x="-520" y="765" width="455" height="40" as="geometry" />
        </mxCell>
        <mxCell id="02JnvlSmlGlPBERRK4Ya-275" value="" style="shape=tableRow;horizontal=0;startSize=0;swimlaneHead=0;swimlaneBody=0;top=0;left=0;bottom=0;right=0;collapsible=0;dropTarget=0;fillColor=none;points=[[0,0.5],[1,0.5]];portConstraint=eastwest;shadow=1;glass=0;labelBackgroundColor=#FF0808;labelBorderColor=none;sketch=1;fillStyle=solid;fontSize=9;fontColor=#121212;strokeColor=#1A1A1A;html=0;" parent="02JnvlSmlGlPBERRK4Ya-274" vertex="1">
          <mxGeometry width="455" height="40" as="geometry" />
        </mxCell>
        <mxCell id="02JnvlSmlGlPBERRK4Ya-276" value="Count" style="shape=partialRectangle;html=1;whiteSpace=wrap;connectable=0;overflow=hidden;fillColor=none;top=0;left=0;bottom=0;right=0;pointerEvents=1;shadow=1;glass=0;labelBackgroundColor=none;labelBorderColor=none;sketch=1;fillStyle=solid;fontSize=9;fontColor=#121212;strokeColor=#1A1A1A;" parent="02JnvlSmlGlPBERRK4Ya-275" vertex="1">
          <mxGeometry width="114" height="40" as="geometry">
            <mxRectangle width="114" height="40" as="alternateBounds" />
          </mxGeometry>
        </mxCell>
        <mxCell id="02JnvlSmlGlPBERRK4Ya-277" value="Number" style="shape=partialRectangle;html=1;whiteSpace=wrap;connectable=0;overflow=hidden;fillColor=none;top=0;left=0;bottom=0;right=0;pointerEvents=1;shadow=1;glass=0;labelBackgroundColor=none;labelBorderColor=none;sketch=1;fillStyle=solid;fontSize=9;fontColor=#121212;strokeColor=#1A1A1A;" parent="02JnvlSmlGlPBERRK4Ya-275" vertex="1">
          <mxGeometry x="114" width="114" height="40" as="geometry">
            <mxRectangle width="114" height="40" as="alternateBounds" />
          </mxGeometry>
        </mxCell>
        <mxCell id="02JnvlSmlGlPBERRK4Ya-278" value="&lt;span style=&quot;background-color: rgb(5 , 138 , 255)&quot;&gt;Edit&lt;/span&gt;" style="shape=partialRectangle;html=1;whiteSpace=wrap;connectable=0;overflow=hidden;fillColor=none;top=0;left=0;bottom=0;right=0;pointerEvents=1;shadow=1;glass=0;labelBackgroundColor=#FF0808;labelBorderColor=none;sketch=1;fillStyle=solid;fontSize=9;fontColor=#121212;strokeColor=#1A1A1A;" parent="02JnvlSmlGlPBERRK4Ya-275" vertex="1">
          <mxGeometry x="228" width="113" height="40" as="geometry">
            <mxRectangle width="113" height="40" as="alternateBounds" />
          </mxGeometry>
        </mxCell>
        <mxCell id="02JnvlSmlGlPBERRK4Ya-279" value="Delete" style="shape=partialRectangle;html=1;whiteSpace=wrap;connectable=0;overflow=hidden;fillColor=none;top=0;left=0;bottom=0;right=0;pointerEvents=1;shadow=1;glass=0;labelBackgroundColor=#FF0808;labelBorderColor=none;sketch=1;fillStyle=solid;fontSize=9;fontColor=#121212;strokeColor=#1A1A1A;" parent="02JnvlSmlGlPBERRK4Ya-275" vertex="1">
          <mxGeometry x="341" width="114" height="40" as="geometry">
            <mxRectangle width="114" height="40" as="alternateBounds" />
          </mxGeometry>
        </mxCell>
        <mxCell id="02JnvlSmlGlPBERRK4Ya-311" value="Enter number...." style="rounded=0;whiteSpace=wrap;html=1;shadow=1;glass=0;labelBackgroundColor=none;labelBorderColor=none;sketch=1;fillStyle=solid;fontSize=9;fontColor=none;strokeColor=#1A1A1A;fillColor=#F6FFF0;" parent="4n0d5DJK6220EFRmUgS7-1" vertex="1">
          <mxGeometry x="-520" y="538" width="170" height="22" as="geometry" />
        </mxCell>
        <mxCell id="02JnvlSmlGlPBERRK4Ya-312" value="Add" style="shape=ext;double=1;rounded=0;whiteSpace=wrap;html=1;shadow=1;glass=0;labelBackgroundColor=none;sketch=1;fontSize=15;fontColor=#454545;strokeColor=#1A1A1A;fillColor=#36BCFF;fillStyle=solid;" parent="4n0d5DJK6220EFRmUgS7-1" vertex="1">
          <mxGeometry x="-340" y="537" width="60" height="23" as="geometry" />
        </mxCell>
        <mxCell id="02JnvlSmlGlPBERRK4Ya-313" value="Import from csv" style="rounded=0;whiteSpace=wrap;html=1;shadow=1;glass=0;labelBackgroundColor=none;labelBorderColor=none;sketch=1;fillStyle=solid;fontSize=9;fontColor=none;strokeColor=#1A1A1A;fillColor=#05EEFF;" parent="4n0d5DJK6220EFRmUgS7-1" vertex="1">
          <mxGeometry x="-190" y="540" width="125" height="26.5" as="geometry" />
        </mxCell>
        <mxCell id="02JnvlSmlGlPBERRK4Ya-320" style="edgeStyle=none;rounded=0;orthogonalLoop=1;jettySize=auto;html=1;exitX=0;exitY=0.25;exitDx=0;exitDy=0;entryX=0.911;entryY=-0.041;entryDx=0;entryDy=0;entryPerimeter=0;fontSize=9;fontColor=none;" parent="4n0d5DJK6220EFRmUgS7-1" source="02JnvlSmlGlPBERRK4Ya-317" target="02JnvlSmlGlPBERRK4Ya-88" edge="1">
          <mxGeometry relative="1" as="geometry" />
        </mxCell>
        <mxCell id="02JnvlSmlGlPBERRK4Ya-317" value="Edit Claims" style="shape=ext;double=1;rounded=0;whiteSpace=wrap;html=1;shadow=1;glass=0;dashed=1;dashPattern=1 1;labelBackgroundColor=none;sketch=1;fontSize=15;fontColor=#454545;strokeColor=#1A1A1A;fillColor=none;" parent="4n0d5DJK6220EFRmUgS7-1" vertex="1">
          <mxGeometry x="1530" y="104" width="530" height="40" as="geometry" />
        </mxCell>
        <mxCell id="02JnvlSmlGlPBERRK4Ya-321" value="All of the fileds of claims....." style="rounded=0;whiteSpace=wrap;html=1;shadow=1;glass=0;labelBackgroundColor=none;labelBorderColor=none;sketch=1;fillStyle=solid;fontSize=9;fontColor=none;strokeColor=#1A1A1A;fillColor=#67AB9F;" parent="4n0d5DJK6220EFRmUgS7-1" vertex="1">
          <mxGeometry x="1580" y="165" width="400" height="115" as="geometry" />
        </mxCell>
        <mxCell id="02JnvlSmlGlPBERRK4Ya-323" value="Notes..." style="rounded=0;whiteSpace=wrap;html=1;shadow=1;glass=0;labelBackgroundColor=none;labelBorderColor=none;sketch=1;fillStyle=solid;fontSize=9;fontColor=none;strokeColor=#1A1A1A;fillColor=#67AB9F;" parent="4n0d5DJK6220EFRmUgS7-1" vertex="1">
          <mxGeometry x="1580" y="295" width="120" height="60" as="geometry" />
        </mxCell>
        <mxCell id="02JnvlSmlGlPBERRK4Ya-324" value="Decision" style="rounded=0;whiteSpace=wrap;html=1;shadow=1;glass=0;labelBackgroundColor=none;labelBorderColor=none;sketch=1;fillStyle=solid;fontSize=9;fontColor=none;strokeColor=#1A1A1A;fillColor=#67AB9F;" parent="4n0d5DJK6220EFRmUgS7-1" vertex="1">
          <mxGeometry x="1720" y="295" width="120" height="60" as="geometry" />
        </mxCell>
        <mxCell id="02JnvlSmlGlPBERRK4Ya-325" value="Product Group" style="rounded=0;whiteSpace=wrap;html=1;shadow=1;glass=0;labelBackgroundColor=none;labelBorderColor=none;sketch=1;fillStyle=solid;fontSize=9;fontColor=none;strokeColor=#1A1A1A;fillColor=#67AB9F;" parent="4n0d5DJK6220EFRmUgS7-1" vertex="1">
          <mxGeometry x="1860" y="295" width="120" height="35" as="geometry" />
        </mxCell>
        <mxCell id="02JnvlSmlGlPBERRK4Ya-326" value="Priority" style="rounded=0;whiteSpace=wrap;html=1;shadow=1;glass=0;labelBackgroundColor=none;labelBorderColor=none;sketch=1;fillStyle=solid;fontSize=9;fontColor=none;strokeColor=#1A1A1A;fillColor=#67AB9F;" parent="4n0d5DJK6220EFRmUgS7-1" vertex="1">
          <mxGeometry x="1860" y="337.5" width="120" height="35" as="geometry" />
        </mxCell>
        <mxCell id="02JnvlSmlGlPBERRK4Ya-327" value="Inspection results.. (textarea)" style="rounded=0;whiteSpace=wrap;html=1;shadow=1;glass=0;labelBackgroundColor=none;labelBorderColor=none;sketch=1;fillStyle=solid;fontSize=9;fontColor=none;strokeColor=#1A1A1A;fillColor=#67AB9F;" parent="4n0d5DJK6220EFRmUgS7-1" vertex="1">
          <mxGeometry x="1580" y="370" width="260" height="90" as="geometry" />
        </mxCell>
        <mxCell id="02JnvlSmlGlPBERRK4Ya-328" value="Actions taken(input)" style="rounded=0;whiteSpace=wrap;html=1;shadow=1;glass=0;labelBackgroundColor=none;labelBorderColor=none;sketch=1;fillStyle=solid;fontSize=9;fontColor=none;strokeColor=#1A1A1A;fillColor=#67AB9F;" parent="4n0d5DJK6220EFRmUgS7-1" vertex="1">
          <mxGeometry x="1860" y="385" width="120" height="60" as="geometry" />
        </mxCell>
        <mxCell id="02JnvlSmlGlPBERRK4Ya-329" value="Supplier (Input)" style="rounded=0;whiteSpace=wrap;html=1;shadow=1;glass=0;labelBackgroundColor=none;labelBorderColor=none;sketch=1;fillStyle=solid;fontSize=9;fontColor=none;strokeColor=#1A1A1A;fillColor=#67AB9F;" parent="4n0d5DJK6220EFRmUgS7-1" vertex="1">
          <mxGeometry x="1580" y="470" width="120" height="35" as="geometry" />
        </mxCell>
        <mxCell id="02JnvlSmlGlPBERRK4Ya-330" value="Assembled EE" style="rounded=0;whiteSpace=wrap;html=1;shadow=1;glass=0;labelBackgroundColor=none;labelBorderColor=none;sketch=1;fillStyle=solid;fontSize=9;fontColor=none;strokeColor=#1A1A1A;fillColor=#67AB9F;" parent="4n0d5DJK6220EFRmUgS7-1" vertex="1">
          <mxGeometry x="1710" y="470" width="120" height="35" as="geometry" />
        </mxCell>
        <mxCell id="02JnvlSmlGlPBERRK4Ya-331" value="Returned to sales office" style="rounded=0;whiteSpace=wrap;html=1;shadow=1;glass=0;labelBackgroundColor=none;labelBorderColor=none;sketch=1;fillStyle=solid;fontSize=9;fontColor=none;strokeColor=#1A1A1A;fillColor=#67AB9F;" parent="4n0d5DJK6220EFRmUgS7-1" vertex="1">
          <mxGeometry x="1849" y="471" width="171" height="35" as="geometry" />
        </mxCell>
        <mxCell id="02JnvlSmlGlPBERRK4Ya-332" value="&lt;font color=&quot;#fcfff2&quot;&gt;Update&lt;/font&gt;" style="shape=ext;double=1;rounded=0;whiteSpace=wrap;html=1;shadow=1;glass=0;labelBackgroundColor=none;sketch=1;fontSize=15;fontColor=#454545;strokeColor=#1A1A1A;fillColor=#0055FF;fillStyle=solid;" parent="4n0d5DJK6220EFRmUgS7-1" vertex="1">
          <mxGeometry x="1724" y="538.25" width="125" height="30" as="geometry" />
        </mxCell>
      </root>
    </mxGraphModel>
  </diagram>
  <diagram id="C5RBs43oDa-KdzZeNtuy" name="Database Design">
    <mxGraphModel dx="813" dy="439" grid="1" gridSize="10" guides="1" tooltips="1" connect="1" arrows="1" fold="1" page="1" pageScale="1" pageWidth="827" pageHeight="1169" math="0" shadow="0">
      <root>
        <mxCell id="WIyWlLk6GJQsqaUBKTNV-0" />
        <mxCell id="WIyWlLk6GJQsqaUBKTNV-1" parent="WIyWlLk6GJQsqaUBKTNV-0" />
        <mxCell id="zkfFHV4jXpPFQw0GAbJ--0" value="User" style="swimlane;fontStyle=2;align=center;verticalAlign=top;childLayout=stackLayout;horizontal=1;startSize=26;horizontalStack=0;resizeParent=1;resizeLast=0;collapsible=1;marginBottom=0;rounded=0;shadow=0;strokeWidth=1;" parent="WIyWlLk6GJQsqaUBKTNV-1" vertex="1">
          <mxGeometry x="149" y="80" width="160" height="182" as="geometry">
            <mxRectangle x="20" y="20" width="160" height="26" as="alternateBounds" />
          </mxGeometry>
        </mxCell>
        <mxCell id="zkfFHV4jXpPFQw0GAbJ--1" value="id" style="text;align=left;verticalAlign=top;spacingLeft=4;spacingRight=4;overflow=hidden;rotatable=0;points=[[0,0.5],[1,0.5]];portConstraint=eastwest;strokeColor=default;" parent="zkfFHV4jXpPFQw0GAbJ--0" vertex="1">
          <mxGeometry y="26" width="160" height="26" as="geometry" />
        </mxCell>
        <mxCell id="4xknu6KuWVxYdAJBrz7c-51" value="name" style="text;align=left;verticalAlign=top;spacingLeft=4;spacingRight=4;overflow=hidden;rotatable=0;points=[[0,0.5],[1,0.5]];portConstraint=eastwest;strokeColor=default;" parent="zkfFHV4jXpPFQw0GAbJ--0" vertex="1">
          <mxGeometry y="52" width="160" height="26" as="geometry" />
        </mxCell>
        <mxCell id="zkfFHV4jXpPFQw0GAbJ--2" value="phone_number" style="text;align=left;verticalAlign=top;spacingLeft=4;spacingRight=4;overflow=hidden;rotatable=0;points=[[0,0.5],[1,0.5]];portConstraint=eastwest;rounded=0;shadow=0;html=0;strokeColor=default;" parent="zkfFHV4jXpPFQw0GAbJ--0" vertex="1">
          <mxGeometry y="78" width="160" height="26" as="geometry" />
        </mxCell>
        <mxCell id="zkfFHV4jXpPFQw0GAbJ--3" value="email" style="text;align=left;verticalAlign=top;spacingLeft=4;spacingRight=4;overflow=hidden;rotatable=0;points=[[0,0.5],[1,0.5]];portConstraint=eastwest;rounded=0;shadow=0;html=0;strokeColor=default;" parent="zkfFHV4jXpPFQw0GAbJ--0" vertex="1">
          <mxGeometry y="104" width="160" height="26" as="geometry" />
        </mxCell>
        <mxCell id="4xknu6KuWVxYdAJBrz7c-0" value="country" style="text;align=left;verticalAlign=top;spacingLeft=4;spacingRight=4;overflow=hidden;rotatable=0;points=[[0,0.5],[1,0.5]];portConstraint=eastwest;rounded=0;shadow=0;html=0;strokeColor=default;" parent="zkfFHV4jXpPFQw0GAbJ--0" vertex="1">
          <mxGeometry y="130" width="160" height="26" as="geometry" />
        </mxCell>
        <mxCell id="4xknu6KuWVxYdAJBrz7c-37" value="password" style="text;align=left;verticalAlign=top;spacingLeft=4;spacingRight=4;overflow=hidden;rotatable=0;points=[[0,0.5],[1,0.5]];portConstraint=eastwest;rounded=0;shadow=0;html=0;strokeColor=default;" parent="zkfFHV4jXpPFQw0GAbJ--0" vertex="1">
          <mxGeometry y="156" width="160" height="26" as="geometry" />
        </mxCell>
        <mxCell id="zkfFHV4jXpPFQw0GAbJ--17" value="Claim Form (Table: claims)" style="swimlane;fontStyle=0;align=center;verticalAlign=top;childLayout=stackLayout;horizontal=1;startSize=26;horizontalStack=0;resizeParent=1;resizeLast=0;collapsible=1;marginBottom=0;rounded=0;shadow=1;strokeWidth=1;fillColor=#dae8fc;strokeColor=#6c8ebf;glass=0;sketch=1;fontColor=#333333;" parent="WIyWlLk6GJQsqaUBKTNV-1" vertex="1">
          <mxGeometry x="329" y="80" width="160" height="754" as="geometry">
            <mxRectangle x="550" y="140" width="160" height="26" as="alternateBounds" />
          </mxGeometry>
        </mxCell>
        <mxCell id="4xknu6KuWVxYdAJBrz7c-50" value="id" style="text;align=left;verticalAlign=top;spacingLeft=4;spacingRight=4;overflow=hidden;rotatable=0;points=[[0,0.5],[1,0.5]];portConstraint=eastwest;dashed=1;fillColor=none;strokeColor=#82b366;shadow=0;" parent="zkfFHV4jXpPFQw0GAbJ--17" vertex="1">
          <mxGeometry y="26" width="160" height="26" as="geometry" />
        </mxCell>
        <mxCell id="zkfFHV4jXpPFQw0GAbJ--18" value="claim_no" style="text;align=left;verticalAlign=top;spacingLeft=4;spacingRight=4;overflow=hidden;rotatable=0;points=[[0,0.5],[1,0.5]];portConstraint=eastwest;dashed=1;fillColor=none;strokeColor=#82b366;shadow=0;" parent="zkfFHV4jXpPFQw0GAbJ--17" vertex="1">
          <mxGeometry y="52" width="160" height="26" as="geometry" />
        </mxCell>
        <mxCell id="4xknu6KuWVxYdAJBrz7c-26" value="user_id" style="text;align=left;verticalAlign=top;spacingLeft=4;spacingRight=4;overflow=hidden;rotatable=0;points=[[0,0.5],[1,0.5]];portConstraint=eastwest;dashed=1;fillColor=none;strokeColor=none;shadow=0;" parent="zkfFHV4jXpPFQw0GAbJ--17" vertex="1">
          <mxGeometry y="78" width="160" height="26" as="geometry" />
        </mxCell>
        <mxCell id="zkfFHV4jXpPFQw0GAbJ--19" value="date" style="text;align=left;verticalAlign=top;spacingLeft=4;spacingRight=4;overflow=hidden;rotatable=0;points=[[0,0.5],[1,0.5]];portConstraint=eastwest;rounded=0;shadow=0;html=0;" parent="zkfFHV4jXpPFQw0GAbJ--17" vertex="1">
          <mxGeometry y="104" width="160" height="26" as="geometry" />
        </mxCell>
        <mxCell id="zkfFHV4jXpPFQw0GAbJ--20" value="sales_channel" style="text;align=left;verticalAlign=top;spacingLeft=4;spacingRight=4;overflow=hidden;rotatable=0;points=[[0,0.5],[1,0.5]];portConstraint=eastwest;rounded=0;shadow=0;html=0;" parent="zkfFHV4jXpPFQw0GAbJ--17" vertex="1">
          <mxGeometry y="130" width="160" height="26" as="geometry" />
        </mxCell>
        <mxCell id="zkfFHV4jXpPFQw0GAbJ--21" value="registered_by" style="text;align=left;verticalAlign=top;spacingLeft=4;spacingRight=4;overflow=hidden;rotatable=0;points=[[0,0.5],[1,0.5]];portConstraint=eastwest;rounded=0;shadow=0;html=0;" parent="zkfFHV4jXpPFQw0GAbJ--17" vertex="1">
          <mxGeometry y="156" width="160" height="26" as="geometry" />
        </mxCell>
        <mxCell id="zkfFHV4jXpPFQw0GAbJ--22" value="customer_name" style="text;align=left;verticalAlign=top;spacingLeft=4;spacingRight=4;overflow=hidden;rotatable=0;points=[[0,0.5],[1,0.5]];portConstraint=eastwest;rounded=0;shadow=0;html=0;" parent="zkfFHV4jXpPFQw0GAbJ--17" vertex="1">
          <mxGeometry y="182" width="160" height="26" as="geometry" />
        </mxCell>
        <mxCell id="4xknu6KuWVxYdAJBrz7c-1" value="customer_nr" style="text;align=left;verticalAlign=top;spacingLeft=4;spacingRight=4;overflow=hidden;rotatable=0;points=[[0,0.5],[1,0.5]];portConstraint=eastwest;rounded=0;shadow=0;html=0;" parent="zkfFHV4jXpPFQw0GAbJ--17" vertex="1">
          <mxGeometry y="208" width="160" height="26" as="geometry" />
        </mxCell>
        <mxCell id="4xknu6KuWVxYdAJBrz7c-2" value="customer_country" style="text;align=left;verticalAlign=top;spacingLeft=4;spacingRight=4;overflow=hidden;rotatable=0;points=[[0,0.5],[1,0.5]];portConstraint=eastwest;rounded=0;shadow=0;html=0;" parent="zkfFHV4jXpPFQw0GAbJ--17" vertex="1">
          <mxGeometry y="234" width="160" height="26" as="geometry" />
        </mxCell>
        <mxCell id="4xknu6KuWVxYdAJBrz7c-3" value="item_nr" style="text;align=left;verticalAlign=top;spacingLeft=4;spacingRight=4;overflow=hidden;rotatable=0;points=[[0,0.5],[1,0.5]];portConstraint=eastwest;rounded=0;shadow=0;html=0;" parent="zkfFHV4jXpPFQw0GAbJ--17" vertex="1">
          <mxGeometry y="260" width="160" height="26" as="geometry" />
        </mxCell>
        <mxCell id="4xknu6KuWVxYdAJBrz7c-4" value="quantity" style="text;align=left;verticalAlign=top;spacingLeft=4;spacingRight=4;overflow=hidden;rotatable=0;points=[[0,0.5],[1,0.5]];portConstraint=eastwest;rounded=0;shadow=0;html=0;" parent="zkfFHV4jXpPFQw0GAbJ--17" vertex="1">
          <mxGeometry y="286" width="160" height="26" as="geometry" />
        </mxCell>
        <mxCell id="4xknu6KuWVxYdAJBrz7c-5" value="serial_nr" style="text;align=left;verticalAlign=top;spacingLeft=4;spacingRight=4;overflow=hidden;rotatable=0;points=[[0,0.5],[1,0.5]];portConstraint=eastwest;rounded=0;shadow=0;html=0;" parent="zkfFHV4jXpPFQw0GAbJ--17" vertex="1">
          <mxGeometry y="312" width="160" height="26" as="geometry" />
        </mxCell>
        <mxCell id="4xknu6KuWVxYdAJBrz7c-6" value="purchased_date" style="text;align=left;verticalAlign=top;spacingLeft=4;spacingRight=4;overflow=hidden;rotatable=0;points=[[0,0.5],[1,0.5]];portConstraint=eastwest;rounded=0;shadow=0;html=0;" parent="zkfFHV4jXpPFQw0GAbJ--17" vertex="1">
          <mxGeometry y="338" width="160" height="26" as="geometry" />
        </mxCell>
        <mxCell id="4xknu6KuWVxYdAJBrz7c-7" value="customer_invoice_number" style="text;align=left;verticalAlign=top;spacingLeft=4;spacingRight=4;overflow=hidden;rotatable=0;points=[[0,0.5],[1,0.5]];portConstraint=eastwest;rounded=0;shadow=0;html=0;" parent="zkfFHV4jXpPFQw0GAbJ--17" vertex="1">
          <mxGeometry y="364" width="160" height="26" as="geometry" />
        </mxCell>
        <mxCell id="4xknu6KuWVxYdAJBrz7c-8" value="failure_type" style="text;align=left;verticalAlign=top;spacingLeft=4;spacingRight=4;overflow=hidden;rotatable=0;points=[[0,0.5],[1,0.5]];portConstraint=eastwest;rounded=0;shadow=0;html=0;" parent="zkfFHV4jXpPFQw0GAbJ--17" vertex="1">
          <mxGeometry y="390" width="160" height="26" as="geometry" />
        </mxCell>
        <mxCell id="4xknu6KuWVxYdAJBrz7c-23" value="problem_description" style="text;align=left;verticalAlign=top;spacingLeft=4;spacingRight=4;overflow=hidden;rotatable=0;points=[[0,0.5],[1,0.5]];portConstraint=eastwest;rounded=0;shadow=0;html=0;" parent="zkfFHV4jXpPFQw0GAbJ--17" vertex="1">
          <mxGeometry y="416" width="160" height="26" as="geometry" />
        </mxCell>
        <mxCell id="4xknu6KuWVxYdAJBrz7c-24" value="customer_order_number" style="text;align=left;verticalAlign=top;spacingLeft=4;spacingRight=4;overflow=hidden;rotatable=0;points=[[0,0.5],[1,0.5]];portConstraint=eastwest;rounded=0;shadow=0;html=0;" parent="zkfFHV4jXpPFQw0GAbJ--17" vertex="1">
          <mxGeometry y="442" width="160" height="26" as="geometry" />
        </mxCell>
        <mxCell id="4xknu6KuWVxYdAJBrz7c-25" value="customer_order_date" style="text;align=left;verticalAlign=top;spacingLeft=4;spacingRight=4;overflow=hidden;rotatable=0;points=[[0,0.5],[1,0.5]];portConstraint=eastwest;rounded=0;shadow=0;html=0;" parent="zkfFHV4jXpPFQw0GAbJ--17" vertex="1">
          <mxGeometry y="468" width="160" height="26" as="geometry" />
        </mxCell>
        <mxCell id="8gYUtHq8t9JpO7NypSEH-0" value="notes" style="text;align=left;verticalAlign=top;spacingLeft=4;spacingRight=4;overflow=hidden;rotatable=0;points=[[0,0.5],[1,0.5]];portConstraint=eastwest;rounded=0;shadow=0;html=0;" vertex="1" parent="zkfFHV4jXpPFQw0GAbJ--17">
          <mxGeometry y="494" width="160" height="26" as="geometry" />
        </mxCell>
        <mxCell id="8gYUtHq8t9JpO7NypSEH-1" value="decision" style="text;align=left;verticalAlign=top;spacingLeft=4;spacingRight=4;overflow=hidden;rotatable=0;points=[[0,0.5],[1,0.5]];portConstraint=eastwest;rounded=0;shadow=0;html=0;" vertex="1" parent="zkfFHV4jXpPFQw0GAbJ--17">
          <mxGeometry y="520" width="160" height="26" as="geometry" />
        </mxCell>
        <mxCell id="4xknu6KuWVxYdAJBrz7c-65" value="product_group" style="text;align=left;verticalAlign=top;spacingLeft=4;spacingRight=4;overflow=hidden;rotatable=0;points=[[0,0.5],[1,0.5]];portConstraint=eastwest;rounded=0;shadow=0;html=0;" parent="zkfFHV4jXpPFQw0GAbJ--17" vertex="1">
          <mxGeometry y="546" width="160" height="26" as="geometry" />
        </mxCell>
        <mxCell id="4xknu6KuWVxYdAJBrz7c-66" value="priority" style="text;align=left;verticalAlign=top;spacingLeft=4;spacingRight=4;overflow=hidden;rotatable=0;points=[[0,0.5],[1,0.5]];portConstraint=eastwest;rounded=0;shadow=0;html=0;" parent="zkfFHV4jXpPFQw0GAbJ--17" vertex="1">
          <mxGeometry y="572" width="160" height="26" as="geometry" />
        </mxCell>
        <mxCell id="4xknu6KuWVxYdAJBrz7c-67" value="inspection_results" style="text;align=left;verticalAlign=top;spacingLeft=4;spacingRight=4;overflow=hidden;rotatable=0;points=[[0,0.5],[1,0.5]];portConstraint=eastwest;rounded=0;shadow=0;html=0;" parent="zkfFHV4jXpPFQw0GAbJ--17" vertex="1">
          <mxGeometry y="598" width="160" height="26" as="geometry" />
        </mxCell>
        <mxCell id="4xknu6KuWVxYdAJBrz7c-68" value="actions" style="text;align=left;verticalAlign=top;spacingLeft=4;spacingRight=4;overflow=hidden;rotatable=0;points=[[0,0.5],[1,0.5]];portConstraint=eastwest;rounded=0;shadow=0;html=0;" parent="zkfFHV4jXpPFQw0GAbJ--17" vertex="1">
          <mxGeometry y="624" width="160" height="26" as="geometry" />
        </mxCell>
        <mxCell id="4xknu6KuWVxYdAJBrz7c-69" value="supplier" style="text;align=left;verticalAlign=top;spacingLeft=4;spacingRight=4;overflow=hidden;rotatable=0;points=[[0,0.5],[1,0.5]];portConstraint=eastwest;rounded=0;shadow=0;html=0;" parent="zkfFHV4jXpPFQw0GAbJ--17" vertex="1">
          <mxGeometry y="650" width="160" height="26" as="geometry" />
        </mxCell>
        <mxCell id="4xknu6KuWVxYdAJBrz7c-70" value="assembled" style="text;align=left;verticalAlign=top;spacingLeft=4;spacingRight=4;overflow=hidden;rotatable=0;points=[[0,0.5],[1,0.5]];portConstraint=eastwest;rounded=0;shadow=0;html=0;" parent="zkfFHV4jXpPFQw0GAbJ--17" vertex="1">
          <mxGeometry y="676" width="160" height="26" as="geometry" />
        </mxCell>
        <mxCell id="4xknu6KuWVxYdAJBrz7c-96" value="is_returned" style="text;align=left;verticalAlign=top;spacingLeft=4;spacingRight=4;overflow=hidden;rotatable=0;points=[[0,0.5],[1,0.5]];portConstraint=eastwest;rounded=0;shadow=0;html=0;" parent="zkfFHV4jXpPFQw0GAbJ--17" vertex="1">
          <mxGeometry y="702" width="160" height="26" as="geometry" />
        </mxCell>
        <mxCell id="4xknu6KuWVxYdAJBrz7c-97" value="is_returned_to_sales" style="text;align=left;verticalAlign=top;spacingLeft=4;spacingRight=4;overflow=hidden;rotatable=0;points=[[0,0.5],[1,0.5]];portConstraint=eastwest;rounded=0;shadow=0;html=0;" parent="zkfFHV4jXpPFQw0GAbJ--17" vertex="1">
          <mxGeometry y="728" width="160" height="26" as="geometry" />
        </mxCell>
        <mxCell id="zkfFHV4jXpPFQw0GAbJ--26" value="" style="endArrow=open;shadow=0;strokeWidth=1;rounded=0;endFill=1;edgeStyle=elbowEdgeStyle;elbow=vertical;" parent="WIyWlLk6GJQsqaUBKTNV-1" source="zkfFHV4jXpPFQw0GAbJ--0" target="zkfFHV4jXpPFQw0GAbJ--17" edge="1">
          <mxGeometry x="0.5" y="41" relative="1" as="geometry">
            <mxPoint x="509" y="252" as="sourcePoint" />
            <mxPoint x="669" y="252" as="targetPoint" />
            <mxPoint x="-40" y="32" as="offset" />
          </mxGeometry>
        </mxCell>
        <mxCell id="zkfFHV4jXpPFQw0GAbJ--27" value="0..1" style="resizable=0;align=left;verticalAlign=bottom;labelBackgroundColor=none;fontSize=12;" parent="zkfFHV4jXpPFQw0GAbJ--26" connectable="0" vertex="1">
          <mxGeometry x="-1" relative="1" as="geometry">
            <mxPoint y="4" as="offset" />
          </mxGeometry>
        </mxCell>
        <mxCell id="zkfFHV4jXpPFQw0GAbJ--28" value="1" style="resizable=0;align=right;verticalAlign=bottom;labelBackgroundColor=none;fontSize=12;" parent="zkfFHV4jXpPFQw0GAbJ--26" connectable="0" vertex="1">
          <mxGeometry x="1" relative="1" as="geometry">
            <mxPoint x="-7" y="4" as="offset" />
          </mxGeometry>
        </mxCell>
        <mxCell id="4xknu6KuWVxYdAJBrz7c-29" value="" style="endArrow=classic;html=1;rounded=0;" parent="WIyWlLk6GJQsqaUBKTNV-1" edge="1">
          <mxGeometry width="50" height="50" relative="1" as="geometry">
            <mxPoint x="309" y="329.65999999999997" as="sourcePoint" />
            <mxPoint x="329" y="329.65999999999997" as="targetPoint" />
          </mxGeometry>
        </mxCell>
        <mxCell id="4xknu6KuWVxYdAJBrz7c-32" value="item_numbers" style="swimlane;fontStyle=2;align=center;verticalAlign=top;childLayout=stackLayout;horizontal=1;startSize=26;horizontalStack=0;resizeParent=1;resizeLast=0;collapsible=1;marginBottom=0;rounded=0;shadow=0;strokeWidth=1;" parent="WIyWlLk6GJQsqaUBKTNV-1" vertex="1">
          <mxGeometry x="149" y="280" width="160" height="80" as="geometry">
            <mxRectangle x="20" y="20" width="160" height="26" as="alternateBounds" />
          </mxGeometry>
        </mxCell>
        <mxCell id="4xknu6KuWVxYdAJBrz7c-33" value="id" style="text;align=left;verticalAlign=top;spacingLeft=4;spacingRight=4;overflow=hidden;rotatable=0;points=[[0,0.5],[1,0.5]];portConstraint=eastwest;strokeColor=default;" parent="4xknu6KuWVxYdAJBrz7c-32" vertex="1">
          <mxGeometry y="26" width="160" height="26" as="geometry" />
        </mxCell>
        <mxCell id="4xknu6KuWVxYdAJBrz7c-34" value="number" style="text;align=left;verticalAlign=top;spacingLeft=4;spacingRight=4;overflow=hidden;rotatable=0;points=[[0,0.5],[1,0.5]];portConstraint=eastwest;rounded=0;shadow=0;html=0;strokeColor=default;" parent="4xknu6KuWVxYdAJBrz7c-32" vertex="1">
          <mxGeometry y="52" width="160" height="26" as="geometry" />
        </mxCell>
        <mxCell id="4xknu6KuWVxYdAJBrz7c-38" value="group_numbers" style="swimlane;fontStyle=2;align=center;verticalAlign=top;childLayout=stackLayout;horizontal=1;startSize=26;horizontalStack=0;resizeParent=1;resizeLast=0;collapsible=1;marginBottom=0;rounded=0;shadow=0;strokeWidth=1;" parent="WIyWlLk6GJQsqaUBKTNV-1" vertex="1">
          <mxGeometry x="149" y="380" width="160" height="80" as="geometry">
            <mxRectangle x="20" y="20" width="160" height="26" as="alternateBounds" />
          </mxGeometry>
        </mxCell>
        <mxCell id="4xknu6KuWVxYdAJBrz7c-39" value="id" style="text;align=left;verticalAlign=top;spacingLeft=4;spacingRight=4;overflow=hidden;rotatable=0;points=[[0,0.5],[1,0.5]];portConstraint=eastwest;strokeColor=default;" parent="4xknu6KuWVxYdAJBrz7c-38" vertex="1">
          <mxGeometry y="26" width="160" height="26" as="geometry" />
        </mxCell>
        <mxCell id="4xknu6KuWVxYdAJBrz7c-41" value="" style="endArrow=classic;html=1;rounded=0;fontColor=#333333;" parent="4xknu6KuWVxYdAJBrz7c-38" edge="1">
          <mxGeometry width="50" height="50" relative="1" as="geometry">
            <mxPoint x="160" y="40" as="sourcePoint" />
            <mxPoint x="180" y="39.660000000000025" as="targetPoint" />
          </mxGeometry>
        </mxCell>
        <mxCell id="4xknu6KuWVxYdAJBrz7c-40" value="number" style="text;align=left;verticalAlign=top;spacingLeft=4;spacingRight=4;overflow=hidden;rotatable=0;points=[[0,0.5],[1,0.5]];portConstraint=eastwest;rounded=0;shadow=0;html=0;strokeColor=default;" parent="4xknu6KuWVxYdAJBrz7c-38" vertex="1">
          <mxGeometry y="52" width="160" height="26" as="geometry" />
        </mxCell>
        <mxCell id="4xknu6KuWVxYdAJBrz7c-42" value="product_serial_numbers" style="swimlane;fontStyle=2;align=center;verticalAlign=top;childLayout=stackLayout;horizontal=1;startSize=26;horizontalStack=0;resizeParent=1;resizeLast=0;collapsible=1;marginBottom=0;rounded=0;shadow=0;strokeWidth=1;" parent="WIyWlLk6GJQsqaUBKTNV-1" vertex="1">
          <mxGeometry x="149" y="470" width="160" height="80" as="geometry">
            <mxRectangle x="20" y="20" width="160" height="26" as="alternateBounds" />
          </mxGeometry>
        </mxCell>
        <mxCell id="4xknu6KuWVxYdAJBrz7c-43" value="id" style="text;align=left;verticalAlign=top;spacingLeft=4;spacingRight=4;overflow=hidden;rotatable=0;points=[[0,0.5],[1,0.5]];portConstraint=eastwest;strokeColor=default;" parent="4xknu6KuWVxYdAJBrz7c-42" vertex="1">
          <mxGeometry y="26" width="160" height="26" as="geometry" />
        </mxCell>
        <mxCell id="4xknu6KuWVxYdAJBrz7c-44" value="" style="endArrow=classic;html=1;rounded=0;fontColor=#333333;" parent="4xknu6KuWVxYdAJBrz7c-42" edge="1">
          <mxGeometry width="50" height="50" relative="1" as="geometry">
            <mxPoint x="160" y="40" as="sourcePoint" />
            <mxPoint x="180" y="39.660000000000025" as="targetPoint" />
          </mxGeometry>
        </mxCell>
        <mxCell id="4xknu6KuWVxYdAJBrz7c-45" value="number" style="text;align=left;verticalAlign=top;spacingLeft=4;spacingRight=4;overflow=hidden;rotatable=0;points=[[0,0.5],[1,0.5]];portConstraint=eastwest;rounded=0;shadow=0;html=0;strokeColor=default;" parent="4xknu6KuWVxYdAJBrz7c-42" vertex="1">
          <mxGeometry y="52" width="160" height="26" as="geometry" />
        </mxCell>
        <mxCell id="4xknu6KuWVxYdAJBrz7c-64" value="" style="edgeStyle=none;rounded=0;orthogonalLoop=1;jettySize=auto;html=1;fontColor=#333333;entryX=1;entryY=0.04;entryDx=0;entryDy=0;entryPerimeter=0;" parent="WIyWlLk6GJQsqaUBKTNV-1" source="4xknu6KuWVxYdAJBrz7c-46" target="zkfFHV4jXpPFQw0GAbJ--17" edge="1">
          <mxGeometry relative="1" as="geometry" />
        </mxCell>
        <mxCell id="4xknu6KuWVxYdAJBrz7c-46" value="product_types" style="swimlane;fontStyle=2;align=center;verticalAlign=top;childLayout=stackLayout;horizontal=1;startSize=26;horizontalStack=0;resizeParent=1;resizeLast=0;collapsible=1;marginBottom=0;rounded=0;shadow=0;strokeWidth=1;" parent="WIyWlLk6GJQsqaUBKTNV-1" vertex="1">
          <mxGeometry x="509" y="80" width="160" height="80" as="geometry">
            <mxRectangle x="20" y="20" width="160" height="26" as="alternateBounds" />
          </mxGeometry>
        </mxCell>
        <mxCell id="4xknu6KuWVxYdAJBrz7c-47" value="id" style="text;align=left;verticalAlign=top;spacingLeft=4;spacingRight=4;overflow=hidden;rotatable=0;points=[[0,0.5],[1,0.5]];portConstraint=eastwest;strokeColor=default;" parent="4xknu6KuWVxYdAJBrz7c-46" vertex="1">
          <mxGeometry y="26" width="160" height="26" as="geometry" />
        </mxCell>
        <mxCell id="4xknu6KuWVxYdAJBrz7c-49" value="type" style="text;align=left;verticalAlign=top;spacingLeft=4;spacingRight=4;overflow=hidden;rotatable=0;points=[[0,0.5],[1,0.5]];portConstraint=eastwest;rounded=0;shadow=0;html=0;strokeColor=default;" parent="4xknu6KuWVxYdAJBrz7c-46" vertex="1">
          <mxGeometry y="52" width="160" height="26" as="geometry" />
        </mxCell>
      </root>
    </mxGraphModel>
  </diagram>
</mxfile>
